<svg width="70" height="107" fill="none" xmlns="http://www.w3.org/2000/svg"><path d="M18.122 42h1.847l6.477-12.898v-1.648h-9.318v1.563h7.5v.114L18.122 42zm9.129-2.983h6.846V42h1.676v-2.983h1.99v-1.563h-1.99v-10h-2.13L27.25 37.569v1.449zm6.846-1.563h-4.943v-.113l4.83-7.642h.113v7.756zm13.411 1.819c0 1.59.995 2.926 2.841 2.926 1.818 0 2.813-1.335 2.813-2.926v-.767c0-1.591-.966-2.926-2.813-2.926-1.818 0-2.84 1.335-2.84 2.926v.767zm-7.244-8.324c0 1.59.994 2.926 2.84 2.926 1.819 0 2.813-1.335 2.813-2.926v-.767c0-1.591-.966-2.926-2.812-2.926-1.818 0-2.841 1.335-2.841 2.926v.767zM40.804 42h1.619l10-14.546h-1.62L40.804 42zm8.153-3.494c0-.881.398-1.705 1.392-1.705 1.023 0 1.364.824 1.364 1.705v.767c0 .88-.37 1.704-1.364 1.704-1.023 0-1.392-.824-1.392-1.704v-.767zm-7.244-8.324c0-.88.398-1.705 1.392-1.705 1.023 0 1.364.824 1.364 1.705v.767c0 .88-.37 1.704-1.364 1.704-1.023 0-1.392-.823-1.392-1.704v-.767zM28.837 94c-.54-2.983-2.926-4.744-5.852-4.744-3.722 0-6.42 2.869-6.42 7.471 0 4.603 2.698 7.472 6.42 7.472 2.926 0 5.312-1.761 5.852-4.745h-1.761c-.426 2.018-2.16 3.097-4.091 3.097-2.642 0-4.716-2.045-4.716-5.824 0-3.778 2.074-5.824 4.716-5.824 1.932 0 3.665 1.08 4.09 3.097h1.762zm6.55 9.006h1.591v-3.892h3.892v-1.591h-3.892V93.63h-1.59v3.892h-3.893v1.59h3.892v3.893zm12.854 0h1.59v-3.892h3.893v-1.591h-3.892V93.63H48.24v3.892h-3.892v1.59h3.892v3.893z" fill="#865FB7"/><path fill-rule="evenodd" clip-rule="evenodd" d="M66.558 50.137a35 35 0 002.65-22.544l-1.949.422A33.07 33.07 0 0168 35c0 18.225-14.775 33-33 33S2 53.225 2 35 16.775 2 35 2c4.072 0 7.973.738 11.574 2.087l.698-1.865a35 35 0 1019.286 47.915z" fill="#865FB7"/></svg>