<svg width="70" height="107" viewBox="0 0 70 107" fill="none" xmlns="http://www.w3.org/2000/svg">
<path d="M17.4369 42H19.2835L25.7607 29.1023V27.4545H16.4426V29.017H23.9426V29.1307L17.4369 42ZM32.4441 42.1989C35.3489 42.1989 37.373 40.5014 37.3873 38.1364C37.373 36.2969 36.1444 34.7344 34.5748 34.4432V34.358C35.9384 34.0028 36.8333 32.6676 36.8475 31.1193C36.8333 28.9034 34.9725 27.2557 32.4441 27.2557C29.8873 27.2557 28.0265 28.9034 28.0407 31.1193C28.0265 32.6676 28.9213 34.0028 30.3134 34.358V34.4432C28.7154 34.7344 27.4867 36.2969 27.5009 38.1364C27.4867 40.5014 29.5108 42.1989 32.4441 42.1989ZM32.4441 40.6364C30.4483 40.6364 29.2196 39.6136 29.2338 38.0511C29.2196 36.4105 30.5762 35.2386 32.4441 35.2386C34.2836 35.2386 35.6401 36.4105 35.6543 38.0511C35.6401 39.6136 34.4114 40.6364 32.4441 40.6364ZM32.4441 33.733C30.8532 33.733 29.731 32.7386 29.7452 31.233C29.731 29.7557 30.8105 28.7898 32.4441 28.7898C34.0492 28.7898 35.1287 29.7557 35.1429 31.233C35.1287 32.7386 34.0066 33.733 32.4441 33.733ZM47.1938 39.2727C47.1938 40.8636 48.1881 42.1989 50.0347 42.1989C51.8529 42.1989 52.8472 40.8636 52.8472 39.2727V38.5057C52.8472 36.9148 51.8813 35.5795 50.0347 35.5795C48.2165 35.5795 47.1938 36.9148 47.1938 38.5057V39.2727ZM39.9495 30.9489C39.9495 32.5398 40.9438 33.875 42.7904 33.875C44.6086 33.875 45.6029 32.5398 45.6029 30.9489V30.1818C45.6029 28.5909 44.637 27.2557 42.7904 27.2557C40.9722 27.2557 39.9495 28.5909 39.9495 30.1818V30.9489ZM40.4893 42H42.1086L52.1086 27.4545H50.4893L40.4893 42ZM48.6427 38.5057C48.6427 37.625 49.0404 36.8011 50.0347 36.8011C51.0574 36.8011 51.3984 37.625 51.3984 38.5057V39.2727C51.3984 40.1534 51.029 40.9773 50.0347 40.9773C49.012 40.9773 48.6427 40.1534 48.6427 39.2727V38.5057ZM41.3984 30.1818C41.3984 29.3011 41.7961 28.4773 42.7904 28.4773C43.8131 28.4773 44.154 29.3011 44.154 30.1818V30.9489C44.154 31.8295 43.7847 32.6534 42.7904 32.6534C41.7677 32.6534 41.3984 31.8295 41.3984 30.9489V30.1818Z" fill="#34879D"/>
<path d="M9.05716 89.4545H6.98329L11.6708 96.7273L6.98329 104H9.05716L12.8072 98.0625H12.9208L16.6708 104H18.7447L14.1708 96.7273L18.7447 89.4545H16.6708L12.9208 95.5057H12.8072L9.05716 89.4545ZM24.3449 104.227C26.7597 104.227 28.3506 102.75 28.6347 100.818H26.9585C26.646 102.011 25.6517 102.722 24.3449 102.722C22.3563 102.722 21.0779 101.074 21.0779 98.5455C21.0779 96.0739 22.3847 94.4545 24.3449 94.4545C25.8222 94.4545 26.7029 95.3636 26.9585 96.358H28.6347C28.3506 94.3125 26.6176 92.9489 24.3165 92.9489C21.3619 92.9489 19.4017 95.2784 19.4017 98.6023C19.4017 101.869 21.2767 104.227 24.3449 104.227ZM35.1866 104.227C38.1412 104.227 40.1298 101.983 40.1298 98.6023C40.1298 95.1932 38.1412 92.9489 35.1866 92.9489C32.2321 92.9489 30.2434 95.1932 30.2434 98.6023C30.2434 101.983 32.2321 104.227 35.1866 104.227ZM35.1866 102.722C32.9423 102.722 31.9196 100.79 31.9196 98.6023C31.9196 96.4148 32.9423 94.4545 35.1866 94.4545C37.4309 94.4545 38.4537 96.4148 38.4537 98.6023C38.4537 100.79 37.4309 102.722 35.1866 102.722ZM46.4776 104.227C48.5798 104.227 49.2901 102.92 49.6594 102.324H49.8582V104H51.4776V89.4545H49.8014V94.8239H49.6594C49.2901 94.2557 48.6366 92.9489 46.506 92.9489C43.7503 92.9489 41.8469 95.1364 41.8469 98.5739C41.8469 102.04 43.7503 104.227 46.4776 104.227ZM46.7048 102.722C44.6026 102.722 43.523 100.875 43.523 98.5455C43.523 96.2443 44.5741 94.4545 46.7048 94.4545C48.7503 94.4545 49.8298 96.1023 49.8298 98.5455C49.8298 101.017 48.7219 102.722 46.7048 102.722ZM59.0238 104.227C61.2397 104.227 62.859 103.119 63.3704 101.472L61.7511 101.017C61.3249 102.153 60.3377 102.722 59.0238 102.722C57.0565 102.722 55.6999 101.45 55.6218 99.1136H63.5409V98.4034C63.5409 94.3409 61.1261 92.9489 58.8534 92.9489C55.8988 92.9489 53.9386 95.2784 53.9386 98.6307C53.9386 101.983 55.8704 104.227 59.0238 104.227ZM55.6218 97.6648C55.7355 95.9673 56.9357 94.4545 58.8534 94.4545C60.6715 94.4545 61.8363 95.8182 61.8363 97.6648H55.6218Z" fill="#34879D"/>
<path fill-rule="evenodd" clip-rule="evenodd" d="M66.4016 50.4576C69.8901 43.371 70.8788 35.3127 69.2072 27.5929L67.2593 28.0147C67.7445 30.2663 68 32.6033 68 35C68 53.2254 53.2254 68 35 68C16.7746 68 1.99999 53.2254 1.99999 35C1.99999 16.7746 16.7746 1.99999 35 1.99999C40.0258 1.99999 44.7892 3.1235 49.0528 5.13305L49.9009 3.33044C42.7538 -0.0323601 34.6793 -0.87875 26.9902 0.928875C19.3011 2.7365 12.4495 7.09184 7.54936 13.2868C2.64918 19.4818 -0.0114437 27.1522 3.69997e-05 35.0509C0.0115177 42.9496 2.69443 50.6122 7.6126 56.7929C12.5308 62.9736 19.395 67.309 27.0893 69.0943C34.7836 70.8796 42.8556 70.0097 49.9929 66.6262C57.1302 63.2426 62.9132 57.5443 66.4016 50.4576Z" fill="#34879D"/>
</svg>
