<svg width="70" height="107" viewBox="0 0 70 107" fill="none" xmlns="http://www.w3.org/2000/svg">
<path d="M21.3406 42.1989C24.2455 42.1989 26.2696 40.5014 26.2838 38.1364C26.2696 36.2969 25.0409 34.7344 23.4713 34.4432V34.358C24.835 34.0028 25.7298 32.6676 25.744 31.1193C25.7298 28.9034 23.869 27.2557 21.3406 27.2557C18.7838 27.2557 16.923 28.9034 16.9372 31.1193C16.923 32.6676 17.8179 34.0028 19.21 34.358V34.4432C17.6119 34.7344 16.3832 36.2969 16.3975 38.1364C16.3832 40.5014 18.4074 42.1989 21.3406 42.1989ZM21.3406 40.6364C19.3449 40.6364 18.1162 39.6136 18.1304 38.0511C18.1162 36.4105 19.4727 35.2386 21.3406 35.2386C23.1801 35.2386 24.5367 36.4105 24.5509 38.0511C24.5367 39.6136 23.308 40.6364 21.3406 40.6364ZM21.3406 33.733C19.7497 33.733 18.6276 32.7386 18.6418 31.233C18.6276 29.7557 19.7071 28.7898 21.3406 28.7898C22.9457 28.7898 24.0253 29.7557 24.0395 31.233C24.0253 32.7386 22.9031 33.733 21.3406 33.733ZM33.5904 42.1989C36.41 42.1989 38.5051 40.4304 38.5051 38.0511C38.5051 36.2045 37.4114 34.8622 35.579 34.5568V34.4432C37.0492 33.9957 37.9654 32.7884 37.9654 31.1477C37.9654 29.0881 36.339 27.2557 33.6472 27.2557C31.133 27.2557 29.0449 28.804 28.9597 31.0909H30.6642C30.7282 29.642 32.106 28.7898 33.6188 28.7898C35.2239 28.7898 36.2608 29.7628 36.2608 31.233C36.2608 32.767 35.0605 33.7614 33.3347 33.7614H32.1699V35.3239H33.3347C35.5435 35.3239 36.7722 36.446 36.7722 38.0511C36.7722 39.5923 35.4299 40.6364 33.562 40.6364C31.8787 40.6364 30.5435 39.7699 30.437 38.3636H28.6472C28.7537 40.6506 30.7708 42.1989 33.5904 42.1989ZM48.4946 39.2727C48.4946 40.8636 49.4889 42.1989 51.3355 42.1989C53.1537 42.1989 54.148 40.8636 54.148 39.2727V38.5057C54.148 36.9148 53.1821 35.5795 51.3355 35.5795C49.5173 35.5795 48.4946 36.9148 48.4946 38.5057V39.2727ZM41.2503 30.9489C41.2503 32.5398 42.2446 33.875 44.0912 33.875C45.9094 33.875 46.9037 32.5398 46.9037 30.9489V30.1818C46.9037 28.5909 45.9378 27.2557 44.0912 27.2557C42.273 27.2557 41.2503 28.5909 41.2503 30.1818V30.9489ZM41.79 42H43.4094L53.4094 27.4545H51.79L41.79 42ZM49.9435 38.5057C49.9435 37.625 50.3412 36.8011 51.3355 36.8011C52.3582 36.8011 52.6991 37.625 52.6991 38.5057V39.2727C52.6991 40.1534 52.3298 40.9773 51.3355 40.9773C50.3128 40.9773 49.9435 40.1534 49.9435 39.2727V38.5057ZM42.6991 30.1818C42.6991 29.3011 43.0969 28.4773 44.0912 28.4773C45.1139 28.4773 45.4548 29.3011 45.4548 30.1818V30.9489C45.4548 31.8295 45.0855 32.6534 44.0912 32.6534C43.0685 32.6534 42.6991 31.8295 42.6991 30.9489V30.1818Z" fill="#38988C"/>
<path d="M21.4205 89.4545V99.8523C21.4205 101.663 20.554 102.636 19.0341 102.636C17.6492 102.636 16.6478 101.827 16.6478 100.591H14.9148C14.9148 102.828 16.6478 104.199 19.0341 104.199C21.5625 104.199 23.1818 102.643 23.1818 99.8523V89.4545H21.4205ZM29.3645 104.256C31.2679 104.256 32.2622 103.233 32.6031 102.523H32.6883V104H34.3645V96.8125C34.3645 93.3466 31.7224 92.9489 30.3304 92.9489C28.6827 92.9489 26.8077 93.517 25.9554 95.5057L27.5463 96.0739C27.9156 95.2784 28.7892 94.4261 30.3872 94.4261C31.9284 94.4261 32.6883 95.2429 32.6883 96.642V96.6989C32.6883 97.5085 31.8645 97.4375 29.8758 97.6932C27.8517 97.956 25.6429 98.4034 25.6429 100.903C25.6429 103.034 27.2906 104.256 29.3645 104.256ZM29.6202 102.75C28.2849 102.75 27.319 102.153 27.319 100.989C27.319 99.7102 28.4838 99.3125 29.7906 99.142C30.5008 99.0568 32.4042 98.858 32.6883 98.517V100.051C32.6883 101.415 31.6088 102.75 29.6202 102.75ZM45.6234 93.0909H43.8053L40.7939 101.784H40.6803L37.6689 93.0909H35.8507L39.8848 104H41.5894L45.6234 93.0909ZM50.3838 104.256C52.2873 104.256 53.2816 103.233 53.6225 102.523H53.7077V104H55.3838V96.8125C55.3838 93.3466 52.7418 92.9489 51.3498 92.9489C49.702 92.9489 47.827 93.517 46.9748 95.5057L48.5657 96.0739C48.935 95.2784 49.8086 94.4261 51.4066 94.4261C52.9478 94.4261 53.7077 95.2429 53.7077 96.642V96.6989C53.7077 97.5085 52.8838 97.4375 50.8952 97.6932C48.8711 97.956 46.6623 98.4034 46.6623 100.903C46.6623 103.034 48.31 104.256 50.3838 104.256ZM50.6395 102.75C49.3043 102.75 48.3384 102.153 48.3384 100.989C48.3384 99.7102 49.5032 99.3125 50.81 99.142C51.5202 99.0568 53.4236 98.858 53.7077 98.517V100.051C53.7077 101.415 52.6282 102.75 50.6395 102.75Z" fill="#38988C"/>
<path fill-rule="evenodd" clip-rule="evenodd" d="M40.3769 69.5846C48.3783 68.3406 55.7007 64.3607 61.0966 58.3231L59.6056 56.9906C53.5628 63.7473 44.778 68 35 68C16.7746 68 2 53.2254 2 35C2 16.7746 16.7746 2.00001 35 2.00001C52.6049 2.00001 66.9899 15.7857 67.9491 33.1509L69.945 33.0389C69.4913 24.9541 66.2483 17.2769 60.7687 11.3152C55.2891 5.35344 47.9118 1.47614 39.8939 0.343905C31.876 -0.788329 23.7136 0.894556 16.7974 5.10582C9.88123 9.31708 4.6392 15.7962 1.96451 23.4391C-0.710186 31.082 -0.652048 39.4159 2.12901 47.0208C4.91007 54.6257 10.242 61.031 17.2163 65.1453C24.1905 69.2597 32.3756 70.8286 40.3769 69.5846Z" fill="#38988C"/>
</svg>
