<svg width="70" height="107" viewBox="0 0 70 107" fill="none" xmlns="http://www.w3.org/2000/svg">
<path d="M21.3513 27.2557C18.3967 27.2202 16.4933 29.4432 16.4933 32.1136C16.4933 34.9261 18.5672 36.9432 21.0672 36.9432C22.5729 36.9432 23.8513 36.2045 24.6467 35.0114H24.7604C24.7604 38.5909 23.3683 40.6364 21.124 40.6364C19.5899 40.6364 18.6524 39.6705 18.3399 38.3352H16.607C16.9479 40.6364 18.6808 42.1989 21.124 42.1989C24.3911 42.1989 26.4081 39.3011 26.4081 34.1307C26.4081 28.7898 23.7377 27.2841 21.3513 27.2557ZM21.3513 28.8182C23.1695 28.8182 24.5047 30.3807 24.5047 32.0852C24.5047 33.8182 23.0842 35.3807 21.2945 35.3807C19.5047 35.3807 18.1979 33.9318 18.1979 32.1136C18.1979 30.2955 19.5615 28.8182 21.3513 28.8182ZM33.6152 42.1989C36.8255 42.1989 38.6721 39.4787 38.6721 34.7273C38.6721 30.0114 36.7971 27.2557 33.6152 27.2557C30.4334 27.2557 28.5584 30.0114 28.5584 34.7273C28.5584 39.4787 30.405 42.1989 33.6152 42.1989ZM33.6152 40.6364C31.4988 40.6364 30.263 38.5128 30.263 34.7273C30.263 30.9489 31.513 28.7898 33.6152 28.7898C35.7175 28.7898 36.9675 30.9489 36.9675 34.7273C36.9675 38.5128 35.7317 40.6364 33.6152 40.6364ZM48.4555 39.2727C48.4555 40.8636 49.4498 42.1989 51.2964 42.1989C53.1146 42.1989 54.1089 40.8636 54.1089 39.2727V38.5057C54.1089 36.9148 53.143 35.5795 51.2964 35.5795C49.4783 35.5795 48.4555 36.9148 48.4555 38.5057V39.2727ZM41.2112 30.9489C41.2112 32.5398 42.2055 33.875 44.0521 33.875C45.8703 33.875 46.8646 32.5398 46.8646 30.9489V30.1818C46.8646 28.5909 45.8987 27.2557 44.0521 27.2557C42.2339 27.2557 41.2112 28.5909 41.2112 30.1818V30.9489ZM41.751 42H43.3703L53.3703 27.4545H51.751L41.751 42ZM49.9044 38.5057C49.9044 37.625 50.3021 36.8011 51.2964 36.8011C52.3192 36.8011 52.6601 37.625 52.6601 38.5057V39.2727C52.6601 40.1534 52.2908 40.9773 51.2964 40.9773C50.2737 40.9773 49.9044 40.1534 49.9044 39.2727V38.5057ZM42.6601 30.1818C42.6601 29.3011 43.0578 28.4773 44.0521 28.4773C45.0748 28.4773 45.4158 29.3011 45.4158 30.1818V30.9489C45.4158 31.8295 45.0464 32.6534 44.0521 32.6534C43.0294 32.6534 42.6601 31.8295 42.6601 30.9489V30.1818Z" fill="#4672B8"/>
<path d="M8.91676 104H10.6781V97.4943H18.4338V104H20.1952V89.4545H18.4338V95.9318H10.6781V89.4545H8.91676V104ZM22.5958 91.017H27.1697V104H28.9311V91.017H33.5049V89.4545H22.5958V91.017ZM35.8932 89.4545V104H37.5409V92.9489H37.6829L42.2284 104H43.8193L48.3647 92.9489H48.5068V104H50.1545V89.4545H48.0522L43.1091 101.528H42.9386L37.9954 89.4545H35.8932ZM53.356 104H61.8787V102.438H55.1173V89.4545H53.356V104Z" fill="#4672B8"/>
<path fill-rule="evenodd" clip-rule="evenodd" d="M68.2567 45.9085C70.9406 37.7263 70.5138 28.8418 67.0582 20.9545L65.234 21.7537C67.0129 25.8082 68.0001 30.2888 68.0001 35C68.0001 53.2254 53.2255 68 35.0001 68C16.7747 68 2.00013 53.2254 2.00013 35C2.00013 16.7746 16.7747 2.00002 35.0001 2.00002C43.2628 2.00002 50.8163 5.03675 56.6052 10.055L57.9143 8.54364C51.4051 2.906 43.0462 -0.134197 34.4361 0.00454767C25.8261 0.143292 17.5694 3.45124 11.2453 9.29568C4.92123 15.1401 0.97363 23.1108 0.157587 31.6832C-0.658457 40.2556 1.71434 48.8279 6.82213 55.7606C11.9299 62.6933 19.4142 67.4997 27.8434 69.2605C36.2726 71.0213 45.055 69.6128 52.5109 65.3046C59.9669 60.9964 65.5729 54.0907 68.2567 45.9085Z" fill="#4672B8"/>
</svg>
