<svg width="70" height="107" viewBox="0 0 70 107" fill="none" xmlns="http://www.w3.org/2000/svg">
<path d="M18.1224 42H19.969L26.4463 29.1023V27.4545H17.1281V29.017H24.6281V29.1307L18.1224 42ZM27.2507 39.017H34.0973V42H35.7734V39.017H37.7621V37.4545H35.7734V27.4545H33.6428L27.2507 37.5682V39.017ZM34.0973 37.4545H29.1541V37.3409L33.9837 29.6989H34.0973V37.4545ZM47.5083 39.2727C47.5083 40.8636 48.5026 42.1989 50.3492 42.1989C52.1674 42.1989 53.1617 40.8636 53.1617 39.2727V38.5057C53.1617 36.9148 52.1958 35.5795 50.3492 35.5795C48.531 35.5795 47.5083 36.9148 47.5083 38.5057V39.2727ZM40.2639 30.9489C40.2639 32.5398 41.2583 33.875 43.1049 33.875C44.923 33.875 45.9174 32.5398 45.9174 30.9489V30.1818C45.9174 28.5909 44.9514 27.2557 43.1049 27.2557C41.2867 27.2557 40.2639 28.5909 40.2639 30.1818V30.9489ZM40.8037 42H42.423L52.423 27.4545H50.8037L40.8037 42ZM48.9571 38.5057C48.9571 37.625 49.3549 36.8011 50.3492 36.8011C51.3719 36.8011 51.7128 37.625 51.7128 38.5057V39.2727C51.7128 40.1534 51.3435 40.9773 50.3492 40.9773C49.3264 40.9773 48.9571 40.1534 48.9571 39.2727V38.5057ZM41.7128 30.1818C41.7128 29.3011 42.1105 28.4773 43.1049 28.4773C44.1276 28.4773 44.4685 29.3011 44.4685 30.1818V30.9489C44.4685 31.8295 44.0992 32.6534 43.1049 32.6534C42.0821 32.6534 41.7128 31.8295 41.7128 30.9489V30.1818Z" fill="#865FB7"/>
<path d="M28.8371 94C28.2973 91.017 25.9109 89.2557 22.9848 89.2557C19.2632 89.2557 16.5644 92.125 16.5644 96.7273C16.5644 101.33 19.2632 104.199 22.9848 104.199C25.9109 104.199 28.2973 102.438 28.8371 99.4545H27.0757C26.6496 101.472 24.9166 102.551 22.9848 102.551C20.3428 102.551 18.2689 100.506 18.2689 96.7273C18.2689 92.9489 20.3428 90.9034 22.9848 90.9034C24.9166 90.9034 26.6496 91.983 27.0757 94H28.8371ZM35.3873 103.006H36.9782V99.1136H40.8702V97.5227H36.9782V93.6307H35.3873V97.5227H31.4952V99.1136H35.3873V103.006ZM48.2407 103.006H49.8316V99.1136H53.7236V97.5227H49.8316V93.6307H48.2407V97.5227H44.3486V99.1136H48.2407V103.006Z" fill="#865FB7"/>
<path fill-rule="evenodd" clip-rule="evenodd" d="M66.5575 50.1368C69.9207 43.1252 70.853 35.1932 69.2072 27.5929L67.2593 28.0147C67.7445 30.2663 68 32.6033 68 35C68 53.2254 53.2254 68 35 68C16.7746 68 2.00001 53.2254 2.00001 35C2.00001 16.7746 16.7746 1.99996 35 1.99996C39.0725 1.99996 42.9726 2.73766 46.5742 4.0867L47.2723 2.22209C39.9895 -0.504619 32.0061 -0.728275 24.5821 1.58643C17.1581 3.90113 10.7164 8.62235 6.27381 15.0049C1.8312 21.3874 -0.359296 29.0677 0.0480785 36.8335C0.455453 44.5993 3.4375 52.0082 8.52351 57.8909C13.6095 63.7736 20.5098 67.7949 28.1352 69.3202C35.7607 70.8454 43.6769 69.7877 50.6344 66.314C57.5919 62.8403 63.1944 57.1484 66.5575 50.1368Z" fill="#865FB7"/>
</svg>
