<svg width="93" height="109" viewBox="0 0 93 109" fill="none" xmlns="http://www.w3.org/2000/svg">
<path d="M57.8788 109C61.5233 109 64.7015 105.822 64.7015 102.177V86.2432H69.2571C71.9909 86.2432 73.8128 84.4206 73.8128 81.6876V36.1779H19.1885V81.6879C19.1885 84.4213 21.0107 86.2435 23.7441 86.2435H28.3001V102.178C28.3001 105.822 31.4776 109 35.1228 109C38.767 109 41.9448 105.822 41.9448 102.178V86.2435H51.0564V102.178C51.0561 105.822 54.2343 109 57.8788 109Z" fill="#32C2C4"/>
<path d="M85.1918 81.6879C88.8363 81.6879 92.0138 78.5101 92.0138 74.8652V42.9977C92.0138 39.3724 88.8363 36.1779 85.1918 36.1779C81.547 36.1779 78.3691 39.3724 78.3691 42.9977V74.8652C78.3691 78.5097 81.5466 81.6879 85.1918 81.6879Z" fill="#32C2C4"/>
<path d="M7.81027 81.6879C11.4551 81.6879 14.633 78.5101 14.633 74.8652V42.9977C14.633 39.3724 11.4555 36.1779 7.81027 36.1779C4.16577 36.1779 0.988281 39.3724 0.988281 42.9977V74.8652C0.988281 78.5097 4.16577 81.6879 7.81027 81.6879Z" fill="#32C2C4"/>
<path d="M68.3457 0.687436C67.4349 -0.229145 66.0789 -0.229145 65.1682 0.687436L59.058 6.77724L58.7761 7.05876C55.1531 5.24452 51.091 4.33848 46.5674 4.32975C46.5452 4.32975 46.5234 4.32903 46.5012 4.32903H46.5004C46.4775 4.32903 46.4564 4.32975 46.4335 4.32975C41.9103 4.33848 37.8482 5.24452 34.2255 7.05876L33.9429 6.77724L27.8331 0.687436C26.9216 -0.229145 25.5664 -0.229145 24.6556 0.687436C23.7441 1.59892 23.7441 2.95161 24.6556 3.86237L30.5661 9.77395C28.6616 11.0455 26.9347 12.6015 25.4329 14.3812C21.8375 18.643 19.5442 24.1894 19.2288 30.1988C19.2259 30.2614 19.2198 30.3232 19.2168 30.3857C19.1976 30.7949 19.1885 31.2063 19.1885 31.6191H73.8128C73.8128 31.2063 73.803 30.7949 73.7844 30.3857C73.7815 30.3232 73.7753 30.2614 73.7717 30.1988C73.4571 24.1894 71.163 18.6426 67.5676 14.3816C66.0666 12.6019 64.3389 11.0459 62.4344 9.77432L68.3457 3.86273C69.2571 2.95161 69.2571 1.59892 68.3457 0.687436ZM35.1141 23.6649C33.2293 23.6649 31.7013 22.1369 31.7013 20.2521C31.7013 18.3673 33.2293 16.8393 35.1141 16.8393C36.9989 16.8393 38.5269 18.3673 38.5269 20.2521C38.5269 22.1369 36.9989 23.6649 35.1141 23.6649ZM57.8872 23.6649C56.0023 23.6649 54.4743 22.1369 54.4743 20.2521C54.4743 18.3673 56.0023 16.8393 57.8872 16.8393C59.772 16.8393 61.3 18.3673 61.3 20.2521C61.3 22.1369 59.772 23.6649 57.8872 23.6649Z" fill="#32C2C4"/>
</svg>
