<svg width="74" height="90" viewBox="0 0 74 90" fill="none" xmlns="http://www.w3.org/2000/svg">
<path d="M54.3186 0C54.528 0 54.7375 0 54.9588 0C55.4726 6.34699 53.05 11.0894 50.1057 14.5238C47.2168 17.9344 43.2608 21.2423 36.8624 20.7403C36.4356 14.4843 38.8621 10.0935 41.8024 6.6671C44.5294 3.47385 49.5287 0.632328 54.3186 0Z" fill="#32C2C4"/>
<path d="M73.6882 66.0623C73.6882 66.1255 73.6882 66.1809 73.6882 66.2401C71.89 71.6861 69.3251 76.3534 66.1951 80.6849C63.3378 84.6172 59.8363 89.909 53.5841 89.909C48.1817 89.909 44.5932 86.4351 39.0564 86.3403C33.1994 86.2454 29.9785 89.245 24.6235 89.9999C24.0109 89.9999 23.3984 89.9999 22.7977 89.9999C18.8654 89.4308 15.6919 86.3165 13.3799 83.5106C6.56264 75.2192 1.29456 64.5091 0.314453 50.8034C0.314453 49.4597 0.314453 48.12 0.314453 46.7763C0.729418 36.9673 5.49559 28.9921 11.8307 25.127C15.1742 23.0719 19.7704 21.3212 24.8883 22.1037C27.0817 22.4435 29.3225 23.1944 31.2867 23.9374C33.1481 24.6527 35.4758 25.9213 37.6811 25.8542C39.1749 25.8107 40.6609 25.0321 42.1666 24.4828C46.5771 22.8901 50.9007 21.0643 56.5995 21.9219C63.4484 22.9573 68.3094 26.0004 71.313 30.6954C65.5193 34.3827 60.9389 39.9393 61.7214 49.4281C62.4169 58.0475 67.4281 63.0903 73.6882 66.0623Z" fill="#32C2C4"/>
</svg>
