<svg width="71" height="72" viewBox="0 0 71 72" fill="none" xmlns="http://www.w3.org/2000/svg">
<path d="M30.5797 43.1989C33.3993 43.1989 35.4944 41.4304 35.4944 39.0511C35.4944 37.2045 34.4007 35.8622 32.5683 35.5568V35.4432C34.0385 34.9957 34.9547 33.7884 34.9547 32.1477C34.9547 30.0881 33.3283 28.2557 30.6365 28.2557C28.1223 28.2557 26.0342 29.804 25.949 32.0909H27.6535C27.7175 30.642 29.0953 29.7898 30.6081 29.7898C32.2132 29.7898 33.2501 30.7628 33.2501 32.233C33.2501 33.767 32.0498 34.7614 30.324 34.7614H29.1592V36.3239H30.324C32.5328 36.3239 33.7615 37.446 33.7615 39.0511C33.7615 40.5923 32.4192 41.6364 30.5513 41.6364C28.868 41.6364 27.5328 40.7699 27.4263 39.3636H25.6365C25.743 41.6506 27.7601 43.1989 30.5797 43.1989ZM42.6146 43.1989C45.3845 43.1989 47.4157 41.1534 47.4157 38.3693C47.4157 35.5497 45.4555 33.483 42.785 33.483C41.8049 33.483 40.8532 33.831 40.2566 34.3068H40.1714L40.6828 30.017H46.7623V28.4545H39.2055L38.3248 35.6136L39.9725 35.8125C40.5762 35.3793 41.606 35.0668 42.5009 35.0739C44.3546 35.0881 45.7112 36.4943 45.7112 38.3977C45.7112 40.2656 44.4043 41.6364 42.6146 41.6364C41.1231 41.6364 39.937 40.6776 39.8021 39.3636H38.0975C38.2041 41.5795 40.1146 43.1989 42.6146 43.1989Z" fill="#4672B8"/>
<path fill-rule="evenodd" clip-rule="evenodd" d="M42.8882 70.3045C61.834 66.47 74.0842 48.0029 70.2498 29.0571C66.4153 10.1113 47.9483 -2.13891 29.0024 1.69553C10.0566 5.52998 -2.1936 23.997 1.64084 42.9429C5.47529 61.8887 23.9424 74.1389 42.8882 70.3045ZM35.9454 69C54.1708 69 68.9454 54.2254 68.9454 36C68.9454 17.7746 54.1708 3.00002 35.9454 3.00002C17.72 3.00002 2.94537 17.7746 2.94537 36C2.94537 54.2254 17.72 69 35.9454 69Z" fill="#4672B8"/>
</svg>
