<svg width="72" height="72" viewBox="0 0 72 72" fill="none" xmlns="http://www.w3.org/2000/svg">
<path d="M25.9671 28.4545H24.2057L20.5693 30.8693V32.6591L24.1205 30.3011H24.2057V43H25.9671V28.4545ZM34.3656 43.1989C37.1355 43.1989 39.1667 41.1534 39.1667 38.3693C39.1667 35.5497 37.2065 33.483 34.536 33.483C33.5559 33.483 32.6042 33.831 32.0076 34.3068H31.9224L32.4338 30.017H38.5133V28.4545H30.9565L30.0758 35.6136L31.7235 35.8125C32.3272 35.3793 33.3571 35.0668 34.252 35.0739C36.1056 35.0881 37.4622 36.4943 37.4622 38.3977C37.4622 40.2656 36.1554 41.6364 34.3656 41.6364C32.8741 41.6364 31.688 40.6776 31.5531 39.3636H29.8485C29.9551 41.5795 31.8656 43.1989 34.3656 43.1989ZM46.4023 43.1989C49.6125 43.1989 51.4591 40.4787 51.4591 35.7273C51.4591 31.0114 49.5841 28.2557 46.4023 28.2557C43.2204 28.2557 41.3454 31.0114 41.3454 35.7273C41.3454 40.4787 43.192 43.1989 46.4023 43.1989ZM46.4023 41.6364C44.2858 41.6364 43.05 39.5128 43.05 35.7273C43.05 31.9489 44.3 29.7898 46.4023 29.7898C48.5045 29.7898 49.7545 31.9489 49.7545 35.7273C49.7545 39.5128 48.5187 41.6364 46.4023 41.6364Z" fill="#38988C"/>
<path fill-rule="evenodd" clip-rule="evenodd" d="M7.68188 56.5697C19.0422 72.2091 40.9297 75.678 56.5692 64.3177C72.2086 52.9574 75.6775 31.0698 64.3172 15.4304C52.9569 -0.208996 31.0693 -3.67792 15.4299 7.68237C-0.209485 19.0427 -3.67841 40.9302 7.68188 56.5697ZM35.9996 69C54.225 69 68.9996 54.2254 68.9996 36C68.9996 17.7746 54.225 2.99998 35.9996 2.99998C17.7742 2.99998 2.99956 17.7746 2.99956 36C2.99956 54.2254 17.7742 69 35.9996 69Z" fill="#38988C"/>
</svg>
