<svg width="11" height="19" viewBox="0 0 11 19" fill="none" xmlns="http://www.w3.org/2000/svg">
<path d="M11 1.49991C11 1.22377 10.7761 0.99991 10.5 0.99991H8C5.37932 0.869364 3.14528 2.88 3 5.49991V8.19991H0.5C0.223858 8.19991 0 8.42377 0 8.69991V11.2999C0 11.5761 0.223858 11.7999 0.5 11.7999H3V18.4999C3 18.7761 3.22386 18.9999 3.5 18.9999H6.5C6.77614 18.9999 7 18.7761 7 18.4999V11.7999H9.62C9.84874 11.8032 10.0505 11.6508 10.11 11.4299L10.83 8.82991C10.8703 8.68018 10.8389 8.52022 10.7449 8.39688C10.6509 8.27354 10.5051 8.20078 10.35 8.19991H7V5.49991C7.05154 4.98701 7.48452 4.59733 8 4.59991H10.5C10.7761 4.59991 11 4.37605 11 4.09991V1.49991Z" fill="white"/>
</svg>
