<svg width="18" height="18" viewBox="0 0 18 18" fill="none" xmlns="http://www.w3.org/2000/svg">
<path d="M13.5833 10.6667C13.085 12.4002 11.618 13.6813 9.83328 13.9417C8.45256 14.142 7.04985 13.7708 5.949 12.9137C4.84814 12.0566 4.14429 10.7877 3.99994 9.40006C3.88806 8.00615 4.36503 6.62909 5.31511 5.603C6.26519 4.57691 7.60156 3.99558 8.99994 4.00006C9.64807 4.00098 10.2901 4.12542 10.8916 4.36673C11.0879 4.45486 11.319 4.37902 11.4249 4.19173L12.6249 1.9834C12.6771 1.88067 12.6862 1.76139 12.6503 1.65193C12.6143 1.54247 12.5362 1.45183 12.4333 1.40006C9.81368 0.214031 6.7677 0.462365 4.37482 2.05706C1.98193 3.65175 0.580285 6.36745 0.66661 9.24173C0.836798 13.5936 4.29271 17.1 8.64161 17.3334C13.2176 17.5363 17.0996 14.0079 17.3333 9.4334V7.76673C17.3288 7.53847 17.1449 7.3545 16.9166 7.35006H9.41661C9.18649 7.35006 8.99994 7.53661 8.99994 7.76673V10.2667C8.99994 10.4969 9.18649 10.6834 9.41661 10.6834H13.5833" fill="white"/>
</svg>
