<svg width="109" height="95" viewBox="0 0 109 95" fill="none" xmlns="http://www.w3.org/2000/svg">
<path d="M105.807 0.0253906H89.8398V19.1855H109V3.21875C109 1.45516 107.57 0.0253906 105.807 0.0253906Z" fill="#32C2C4"/>
<path d="M83.4531 0.0253906H3.19336C1.42977 0.0253906 0 1.45516 0 3.21875V19.1855H83.4531V0.0253906Z" fill="#32C2C4"/>
<path d="M23.418 47.5H42.5781V66.6602H23.418V47.5Z" fill="#32C2C4"/>
<path d="M0 91.7812C0 93.5448 1.42977 94.9746 3.19336 94.9746H105.807C107.57 94.9746 109 93.5448 109 91.7812V25.5723H0V91.7812ZM76.8535 41.1133H88.7754C90.539 41.1133 91.9688 42.5431 91.9688 44.3066C91.9688 46.0702 90.539 47.5 88.7754 47.5H76.8535C75.0899 47.5 73.6602 46.0702 73.6602 44.3066C73.6602 42.5431 75.0899 41.1133 76.8535 41.1133ZM70.4668 53.8867H88.7754C90.539 53.8867 91.9688 55.3165 91.9688 57.0801C91.9688 58.8437 90.539 60.2734 88.7754 60.2734H70.4668C68.7032 60.2734 67.2734 58.8437 67.2734 57.0801C67.2734 55.3165 68.7032 53.8867 70.4668 53.8867ZM70.4668 66.6602H88.7754C90.539 66.6602 91.9688 68.0899 91.9688 69.8535C91.9688 71.6171 90.539 73.0469 88.7754 73.0469H70.4668C68.7032 73.0469 67.2734 71.6171 67.2734 69.8535C67.2734 68.0899 68.7032 66.6602 70.4668 66.6602ZM17.0312 44.3066C17.0312 42.5431 18.461 41.1133 20.2246 41.1133H45.7715C47.5351 41.1133 48.9648 42.5431 48.9648 44.3066V69.8535C48.9648 71.6171 47.5351 73.0469 45.7715 73.0469H20.2246C18.461 73.0469 17.0312 71.6171 17.0312 69.8535V44.3066Z" fill="#32C2C4"/>
</svg>
