<svg width="70" height="70" viewBox="0 0 70 70" fill="none" xmlns="http://www.w3.org/2000/svg">
<path d="M24.8661 42H34.0422V40.4375H27.2808V40.3239L30.5479 36.8295C33.0479 34.152 33.7865 32.902 33.7865 31.2898C33.7865 29.0455 31.9683 27.2557 29.4115 27.2557C26.8618 27.2557 24.9229 28.9886 24.9229 31.5455H26.599C26.599 29.8906 27.6715 28.7898 29.3547 28.7898C30.9314 28.7898 32.1388 29.7557 32.1388 31.2898C32.1388 32.6321 31.3504 33.6264 29.6672 35.4659L24.8661 40.7216V42ZM41.3896 42.1989C44.5998 42.1989 46.4464 39.4787 46.4464 34.7273C46.4464 30.0114 44.5714 27.2557 41.3896 27.2557C38.2078 27.2557 36.3328 30.0114 36.3328 34.7273C36.3328 39.4787 38.1794 42.1989 41.3896 42.1989ZM41.3896 40.6364C39.2731 40.6364 38.0373 38.5128 38.0373 34.7273C38.0373 30.9489 39.2873 28.7898 41.3896 28.7898C43.4919 28.7898 44.7419 30.9489 44.7419 34.7273C44.7419 38.5128 43.5061 40.6364 41.3896 40.6364Z" fill="#34879D"/>
<path fill-rule="evenodd" clip-rule="evenodd" d="M35 70C54.33 70 70 54.33 70 35C70 15.67 54.33 0 35 0C15.67 0 0 15.67 0 35C0 54.33 15.67 70 35 70ZM35 68C53.2254 68 68 53.2254 68 35C68 16.7746 53.2254 1.99996 35 1.99996C16.7746 1.99996 1.99999 16.7746 1.99999 35C1.99999 53.2254 16.7746 68 35 68Z" fill="#34879D"/>
</svg>
