<svg width="168" height="45" viewBox="0 0 168 45" fill="none" xmlns="http://www.w3.org/2000/svg">
<path d="M27.3809 20.9008C27.3366 15.9874 31.404 13.597 31.59 13.4857C29.2865 10.1272 25.7161 9.66837 24.4615 9.63178C21.4628 9.31621 18.5541 11.4261 17.0265 11.4261C15.4685 11.4261 13.1162 9.66227 10.581 9.7141C7.31856 9.76441 4.26654 11.6533 2.59265 14.5864C-0.861849 20.5669 1.71454 29.3556 5.02421 34.1898C6.6798 36.5573 8.61438 39.2008 11.1466 39.1078C13.6239 39.0057 14.5492 37.5284 17.5387 37.5284C20.5008 37.5284 21.3698 39.1078 23.9523 39.0483C26.611 39.0057 28.2849 36.6701 29.8825 34.2813C31.7958 31.5677 32.5641 28.8952 32.5946 28.758C32.5321 28.7367 27.4312 26.7899 27.3809 20.9008Z" fill="white"/>
<path d="M22.5023 6.45166C23.8347 4.78539 24.7463 2.51847 24.4932 0.218018C22.5648 0.303389 20.153 1.55195 18.7642 3.18163C17.5355 4.6177 16.4378 6.97151 16.7214 9.18507C18.8877 9.34666 21.1119 8.09201 22.5023 6.45166Z" fill="white"/>
<path d="M63.2321 38.7676H59.77L57.8736 32.8084H51.2817L49.4751 38.7676H46.1045L52.6354 18.4797H56.6692L63.2321 38.7676ZM57.3019 30.3082L55.5868 25.0106C55.4054 24.4694 55.0654 23.195 54.5639 21.1887H54.5029C54.3032 22.0516 53.9815 23.3261 53.5394 25.0106L51.8549 30.3082H57.3019Z" fill="white"/>
<path d="M80.0273 31.2732C80.0273 33.7612 79.355 35.7278 78.0104 37.1715C76.806 38.4566 75.3105 39.0984 73.5253 39.0984C71.5984 39.0984 70.2141 38.4063 69.3711 37.0221H69.3101V44.7284H66.0599V28.9545C66.0599 27.3903 66.0187 25.7851 65.9395 24.1386H68.7979L68.9793 26.4574H69.0403C70.1242 24.7103 71.7691 23.8383 73.9766 23.8383C75.7023 23.8383 77.1429 24.5197 78.2954 25.8842C79.451 27.2501 80.0273 29.0459 80.0273 31.2732ZM76.7161 31.3921C76.7161 29.9683 76.3959 28.7944 75.7526 27.8706C75.0498 26.9071 74.1061 26.4253 72.9231 26.4253C72.1213 26.4253 71.3926 26.6937 70.7416 27.2227C70.0891 27.7562 69.6623 28.4529 69.4625 29.3158C69.3619 29.7182 69.3116 30.0475 69.3116 30.3067V32.7459C69.3116 33.81 69.6379 34.7079 70.2903 35.4412C70.9428 36.1745 71.7904 36.5403 72.8332 36.5403C74.0574 36.5403 75.0102 36.0677 75.6916 35.1256C76.3746 34.182 76.7161 32.938 76.7161 31.3921Z" fill="white"/>
<path d="M96.8534 31.2732C96.8534 33.7612 96.1811 35.7278 94.835 37.1715C93.6321 38.4566 92.1366 39.0984 90.3514 39.0984C88.4245 39.0984 87.0402 38.4063 86.1987 37.0221H86.1377V44.7284H82.8875V28.9545C82.8875 27.3903 82.8464 25.7851 82.7671 24.1386H85.6255L85.8069 26.4574H85.8679C86.9503 24.7103 88.5952 23.8383 90.8042 23.8383C92.5284 23.8383 93.969 24.5197 95.1246 25.8842C96.2756 27.2501 96.8534 29.0459 96.8534 31.2732ZM93.5422 31.3921C93.5422 29.9683 93.2205 28.7944 92.5772 27.8706C91.8744 26.9071 90.9338 26.4253 89.7493 26.4253C88.9459 26.4253 88.2187 26.6937 87.5662 27.2227C86.9137 27.7562 86.4884 28.4529 86.2887 29.3158C86.1896 29.7182 86.1377 30.0475 86.1377 30.3067V32.7459C86.1377 33.81 86.464 34.7079 87.1134 35.4412C87.7659 36.1729 88.6135 36.5403 89.6593 36.5403C90.8835 36.5403 91.8363 36.0677 92.5177 35.1256C93.2007 34.182 93.5422 32.938 93.5422 31.3921Z" fill="white"/>
<path d="M115.665 33.0783C115.665 34.804 115.066 36.2081 113.863 37.292C112.542 38.4765 110.702 39.068 108.337 39.068C106.154 39.068 104.404 38.6472 103.079 37.8042L103.832 35.0952C105.259 35.958 106.825 36.391 108.531 36.391C109.755 36.391 110.708 36.1135 111.392 35.5617C112.074 35.0098 112.414 34.2689 112.414 33.3451C112.414 32.5218 112.133 31.8282 111.571 31.2657C111.011 30.7031 110.077 30.1802 108.772 29.697C105.219 28.3722 103.445 26.4315 103.445 23.8795C103.445 22.2117 104.067 20.8443 105.312 19.7802C106.553 18.7145 108.209 18.1825 110.279 18.1825C112.125 18.1825 113.659 18.5042 114.883 19.146L114.071 21.7955C112.927 21.1735 111.635 20.8626 110.188 20.8626C109.044 20.8626 108.151 21.1446 107.511 21.7056C106.97 22.2071 106.698 22.8185 106.698 23.5426C106.698 24.3445 107.008 25.0076 107.63 25.529C108.171 26.0108 109.154 26.5321 110.581 27.0947C112.327 27.7975 113.609 28.6192 114.434 29.5613C115.255 30.5004 115.665 31.6758 115.665 33.0783Z" fill="white"/>
<path d="M126.412 26.5779H122.829V33.6805C122.829 35.487 123.46 36.3895 124.725 36.3895C125.306 36.3895 125.788 36.3392 126.169 36.2386L126.259 38.7067C125.619 38.946 124.776 39.0665 123.732 39.0665C122.448 39.0665 121.445 38.6747 120.721 37.8926C120 37.109 119.637 35.7949 119.637 33.9488V26.5748H117.502V24.1356H119.637V21.4571L122.829 20.4936V24.1356H126.412V26.5779Z" fill="white"/>
<path d="M142.576 31.3329C142.576 33.5815 141.932 35.4276 140.649 36.8713C139.303 38.3577 137.516 39.0986 135.289 39.0986C133.142 39.0986 131.433 38.3867 130.159 36.9628C128.884 35.5389 128.247 33.7416 128.247 31.5753C128.247 29.3083 128.903 27.4515 130.218 26.0078C131.531 24.5626 133.302 23.84 135.53 23.84C137.676 23.84 139.403 24.5519 140.707 25.9773C141.954 27.36 142.576 29.1452 142.576 31.3329ZM139.204 31.4381C139.204 30.0889 138.915 28.9318 138.332 27.9668C137.65 26.799 136.676 26.2167 135.414 26.2167C134.107 26.2167 133.115 26.8006 132.433 27.9668C131.849 28.9333 131.561 30.1087 131.561 31.499C131.561 32.8482 131.849 34.0053 132.433 34.9688C133.136 36.1365 134.118 36.7189 135.385 36.7189C136.626 36.7189 137.6 36.1243 138.303 34.9383C138.902 33.955 139.204 32.7857 139.204 31.4381Z" fill="white"/>
<path d="M153.14 26.997C152.819 26.9376 152.476 26.9071 152.116 26.9071C150.972 26.9071 150.088 27.3385 149.466 28.2029C148.925 28.9651 148.654 29.9286 148.654 31.0918V38.7676H145.405L145.435 28.7456C145.435 27.0595 145.394 25.5244 145.313 24.1401H148.144L148.263 26.9391H148.353C148.696 25.9771 149.238 25.2027 149.978 24.6219C150.703 24.099 151.485 23.8383 152.328 23.8383C152.628 23.8383 152.899 23.8596 153.14 23.8977V26.997Z" fill="white"/>
<path d="M167.676 30.7611C167.676 31.3435 167.638 31.8343 167.557 32.2353H157.807C157.845 33.6805 158.316 34.7857 159.221 35.548C160.043 36.2294 161.106 36.5709 162.411 36.5709C163.854 36.5709 165.171 36.3407 166.356 35.8788L166.865 38.1351C165.481 38.7388 163.847 39.0391 161.961 39.0391C159.692 39.0391 157.912 38.3713 156.616 37.0374C155.323 35.7035 154.675 33.9122 154.675 31.6651C154.675 29.4592 155.277 27.6222 156.483 26.1571C157.746 24.593 159.452 23.8109 161.598 23.8109C163.706 23.8109 165.303 24.593 166.386 26.1571C167.245 27.3996 167.676 28.9363 167.676 30.7611ZM164.577 29.918C164.598 28.9546 164.386 28.1222 163.946 27.4194C163.383 26.5154 162.519 26.0641 161.356 26.0641C160.293 26.0641 159.429 26.5047 158.769 27.3889C158.227 28.0917 157.906 28.9348 157.807 29.9165H164.577V29.918Z" fill="white"/>
<path d="M57.7565 13.5219H56.0658V11H49.3103V13.5219H47.5915L47.5352 9.57707H48.3593C48.7679 9.18259 49.0943 8.60965 49.3385 7.85826C49.5827 7.10217 49.74 6.24746 49.8105 5.29413L50.0782 0.7435H56.5448V9.57707H57.848L57.7565 13.5219ZM50.374 9.57707H54.7697V2.18054H51.7758L51.6068 5.06871C51.48 6.99885 51.0691 8.50164 50.374 9.57707Z" fill="white"/>
<path d="M59.4217 7.11861C59.4217 6.37191 59.5697 5.70035 59.8655 5.10393C60.1614 4.50282 60.577 4.04259 61.1124 3.72325C61.6477 3.39921 62.2629 3.23719 62.958 3.23719C63.9865 3.23719 64.82 3.56827 65.4587 4.23044C66.1021 4.8926 66.4496 5.77079 66.5013 6.86501L66.5083 7.26654C66.5083 8.01793 66.3627 8.68949 66.0716 9.28121C65.7851 9.87293 65.3718 10.3308 64.8318 10.6549C64.2964 10.9789 63.6765 11.1409 62.9721 11.1409C61.8966 11.1409 61.0349 10.784 60.3868 10.0702C59.7434 9.35165 59.4217 8.39597 59.4217 7.20314V7.11861ZM61.1335 7.26654C61.1335 8.0508 61.2955 8.66601 61.6196 9.11215C61.9436 9.55359 62.3944 9.77431 62.9721 9.77431C63.5497 9.77431 63.9982 9.54889 64.3175 9.09806C64.6416 8.64722 64.8036 7.9874 64.8036 7.11861C64.8036 6.34843 64.6369 5.73792 64.3034 5.28708C63.9747 4.83625 63.5262 4.61083 62.958 4.61083C62.3991 4.61083 61.9553 4.8339 61.6266 5.28004C61.2979 5.72148 61.1335 6.38365 61.1335 7.26654Z" fill="white"/>
<path d="M71.8085 9.77431C72.2358 9.77431 72.5904 9.64986 72.8722 9.40096C73.1539 9.15206 73.3042 8.84446 73.323 8.47816H74.9361C74.9173 8.95248 74.7694 9.39627 74.4923 9.80953C74.2153 10.2181 73.8396 10.5421 73.3653 10.7816C72.8909 11.0212 72.379 11.1409 71.8296 11.1409C70.7636 11.1409 69.9182 10.7957 69.2936 10.1054C68.669 9.41505 68.3567 8.46172 68.3567 7.2454V7.06929C68.3567 5.90933 68.6667 4.98183 69.2866 4.28679C69.9065 3.58705 70.7518 3.23719 71.8225 3.23719C72.7289 3.23719 73.4662 3.50252 74.0345 4.0332C74.6074 4.55917 74.908 5.25186 74.9361 6.11127H73.323C73.3042 5.67452 73.1539 5.31526 72.8722 5.03349C72.5951 4.75172 72.2405 4.61083 71.8085 4.61083C71.2543 4.61083 70.827 4.81277 70.5264 5.21664C70.2258 5.61582 70.0732 6.22398 70.0685 7.04112V7.31585C70.0685 8.14238 70.2164 8.75993 70.5123 9.1685C70.8129 9.57238 71.2449 9.77431 71.8085 9.77431Z" fill="white"/>
<path d="M82.9483 4.73763H80.4758V11H78.764V4.73763H76.3196V3.37807H82.9483V4.73763Z" fill="white"/>
<path d="M87.5652 8.5486L89.1149 3.37807H90.9394L87.9104 12.1553C87.4454 13.4374 86.6565 14.0784 85.5435 14.0784C85.2946 14.0784 85.0198 14.0361 84.7193 13.9516V12.6273L85.0433 12.6484C85.4754 12.6484 85.7994 12.5686 86.0154 12.4089C86.2362 12.2539 86.4099 11.9909 86.5367 11.6199L86.7833 10.9648L84.1064 3.37807H85.952L87.5652 8.5486Z" fill="white"/>
<path d="M99.1136 11H97.4019V4.75876H94.4292V11H92.7174V3.37807H99.1136V11Z" fill="white"/>
<path d="M108.112 11H106.4V7.92166H103.435V11H101.723V3.37807H103.435V6.55506H106.4V3.37807H108.112V11Z" fill="white"/>
<path d="M110.341 7.11861C110.341 6.37191 110.489 5.70035 110.785 5.10393C111.081 4.50282 111.496 4.04259 112.032 3.72325C112.567 3.39921 113.182 3.23719 113.877 3.23719C114.906 3.23719 115.739 3.56827 116.378 4.23044C117.021 4.8926 117.369 5.77079 117.42 6.86501L117.427 7.26654C117.427 8.01793 117.282 8.68949 116.991 9.28121C116.704 9.87293 116.291 10.3308 115.751 10.6549C115.216 10.9789 114.596 11.1409 113.891 11.1409C112.816 11.1409 111.954 10.784 111.306 10.0702C110.663 9.35165 110.341 8.39597 110.341 7.20314V7.11861ZM112.053 7.26654C112.053 8.0508 112.215 8.66601 112.539 9.11215C112.863 9.55359 113.314 9.77431 113.891 9.77431C114.469 9.77431 114.917 9.54889 115.237 9.09806C115.561 8.64722 115.723 7.9874 115.723 7.11861C115.723 6.34843 115.556 5.73792 115.223 5.28708C114.894 4.83625 114.445 4.61083 113.877 4.61083C113.318 4.61083 112.874 4.8339 112.546 5.28004C112.217 5.72148 112.053 6.38365 112.053 7.26654Z" fill="white"/>
<path d="M124.041 11V3.37807H127.133C128.176 3.37807 128.969 3.56123 129.514 3.92753C130.059 4.28914 130.331 4.81042 130.331 5.49137C130.331 5.84358 130.221 6.16058 130 6.44235C129.784 6.71943 129.462 6.9331 129.035 7.08338C129.533 7.1867 129.927 7.39568 130.219 7.71033C130.51 8.02497 130.655 8.39597 130.655 8.82333C130.655 9.53246 130.392 10.0725 129.866 10.4435C129.345 10.8145 128.594 11 127.612 11H124.041ZM125.752 7.75259V9.64751H127.626C128.504 9.64751 128.943 9.33287 128.943 8.70358C128.943 8.06959 128.497 7.75259 127.605 7.75259H125.752ZM125.752 6.52688H127.161C128.133 6.52688 128.619 6.24041 128.619 5.66748C128.619 5.06636 128.159 4.75641 127.239 4.73763H125.752V6.52688Z" fill="white"/>
</svg>
