<svg width="109" height="109" viewBox="0 0 109 109" fill="none" xmlns="http://www.w3.org/2000/svg">
<path d="M96.2266 39.5977V8.72852C96.2266 6.96493 94.7968 5.53516 93.0332 5.53516H3.19336C1.42977 5.53516 0 6.96493 0 8.72852V58.7578H70.6797V49.1777C70.6797 43.8953 74.9771 39.5977 80.2598 39.5977H96.2266Z" fill="#32C2C4"/>
<path d="M0 81.1113C0 82.8749 1.42977 84.3047 3.19336 84.3047H70.6797V65.1445H0V81.1113Z" fill="#32C2C4"/>
<path d="M64.0801 97.0781H60.8867V90.6914H35.3398V97.0781H32.1465C30.3829 97.0781 28.9531 98.5079 28.9531 100.271C28.9531 102.035 30.3829 103.465 32.1465 103.465H64.0801C65.8437 103.465 67.2734 102.035 67.2734 100.271C67.2734 98.5079 65.8437 97.0781 64.0801 97.0781Z" fill="#32C2C4"/>
<path d="M105.807 45.9844H80.2598C78.4962 45.9844 77.0664 47.4141 77.0664 49.1777V100.271C77.0664 102.035 78.4962 103.465 80.2598 103.465H105.807C107.57 103.465 109 102.035 109 100.271V49.1777C109 47.4141 107.57 45.9844 105.807 45.9844ZM93.0332 93.8848C91.2696 93.8848 89.8398 92.455 89.8398 90.6914C89.8398 88.9278 91.2696 87.498 93.0332 87.498C94.7968 87.498 96.2266 88.9278 96.2266 90.6914C96.2266 92.455 94.7968 93.8848 93.0332 93.8848Z" fill="#32C2C4"/>
</svg>
