<svg width="187" height="45" viewBox="0 0 187 45" fill="none" xmlns="http://www.w3.org/2000/svg">
<path d="M94.0243 24.8C92.6807 24.8063 91.3692 25.2105 90.2551 25.9615C89.1411 26.7125 88.2745 27.7768 87.7647 29.0198C87.255 30.2629 87.1249 31.6292 87.3909 32.9461C87.6568 34.2631 88.307 35.4717 89.2592 36.4195C90.2115 37.3673 91.4232 38.0118 92.7414 38.2716C94.0596 38.5314 95.4252 38.3949 96.6659 37.8792C97.9065 37.3636 98.9667 36.4921 99.7124 35.3745C100.458 34.257 100.856 32.9435 100.856 31.6C100.869 30.7007 100.701 29.808 100.362 28.9749C100.023 28.1419 99.5197 27.3857 98.8823 26.7512C98.2448 26.1167 97.4862 25.617 96.6516 25.2818C95.817 24.9466 94.9235 24.7827 94.0243 24.8ZM94.0243 35.728C93.198 35.7858 92.3734 35.5937 91.6578 35.1766C90.9422 34.7596 90.3685 34.1369 90.0115 33.3895C89.6544 32.6421 89.5305 31.8046 89.6557 30.9858C89.781 30.1671 90.1497 29.4049 90.7138 28.7985C91.278 28.192 92.0115 27.7693 92.8191 27.5852C93.6267 27.4012 94.4709 27.4644 95.2422 27.7665C96.0134 28.0687 96.6759 28.5959 97.1435 29.2795C97.6111 29.9632 97.8622 30.7717 97.8643 31.6C97.89 32.1248 97.8105 32.6495 97.6302 33.1431C97.45 33.6366 97.1728 34.0891 96.8149 34.4739C96.457 34.8586 96.0257 35.1678 95.5464 35.3832C95.0671 35.5986 94.5496 35.7158 94.0243 35.728ZM79.1283 24.8C77.784 24.8032 76.4709 25.2047 75.3548 25.9538C74.2386 26.7029 73.3695 27.766 72.8573 29.0088C72.3451 30.2516 72.2127 31.6184 72.4769 32.9364C72.7411 34.2544 73.39 35.4645 74.3416 36.4139C75.2932 37.3633 76.5049 38.0094 77.8235 38.2705C79.1421 38.5316 80.5086 38.396 81.7502 37.8808C82.9918 37.3657 84.0529 36.4941 84.7994 35.3762C85.5458 34.2583 85.9443 32.9442 85.9443 31.6C85.9573 30.7007 85.7893 29.808 85.4501 28.9749C85.111 28.1419 84.6077 27.3857 83.9703 26.7512C83.3328 26.1167 82.5742 25.617 81.7396 25.2818C80.905 24.9466 80.0115 24.7827 79.1123 24.8H79.1283ZM79.1283 35.728C78.3016 35.789 77.4757 35.5998 76.7581 35.1849C76.0405 34.77 75.4644 34.1486 75.1048 33.4017C74.7453 32.6549 74.6189 31.817 74.7422 30.9973C74.8654 30.1776 75.2326 29.414 75.796 28.8059C76.3593 28.1978 77.0926 27.7734 77.9005 27.5879C78.7084 27.4024 79.5535 27.4644 80.3256 27.7659C81.0978 28.0674 81.7613 28.5943 82.2298 29.2782C82.6983 29.962 82.95 30.7711 82.9523 31.6C82.978 32.1248 82.8985 32.6495 82.7182 33.1431C82.538 33.6366 82.2608 34.0891 81.9029 34.4739C81.545 34.8586 81.1137 35.1678 80.6344 35.3832C80.1551 35.5986 79.6376 35.7158 79.1123 35.728H79.1283ZM61.3843 26.896V29.776H68.2963C68.1879 31.1325 67.624 32.4125 66.6963 33.408C66.0047 34.1124 65.1734 34.6642 64.2558 35.0279C63.3382 35.3917 62.3546 35.5593 61.3683 35.52C59.3314 35.52 57.378 34.7108 55.9377 33.2706C54.4974 31.8303 53.6883 29.8769 53.6883 27.84C53.6883 25.8031 54.4974 23.8497 55.9377 22.4094C57.378 20.9691 59.3314 20.16 61.3683 20.16C63.3167 20.1282 65.1983 20.8705 66.6003 22.224L68.6323 20.192C67.6858 19.2336 66.5567 18.475 65.3116 17.9611C64.0666 17.4471 62.7311 17.1883 61.3843 17.2C59.9619 17.1446 58.5429 17.377 57.2125 17.8831C55.882 18.3893 54.6674 19.1588 53.6415 20.1456C52.6155 21.1324 51.7994 22.3161 51.2418 23.6259C50.6843 24.9357 50.397 26.3445 50.397 27.768C50.397 29.1915 50.6843 30.6003 51.2418 31.9101C51.7994 33.2198 52.6155 34.4036 53.6415 35.3904C54.6674 36.3772 55.882 37.1467 57.2125 37.6528C58.5429 38.159 59.9619 38.3913 61.3843 38.336C62.7538 38.3979 64.1207 38.1657 65.393 37.6551C66.6653 37.1446 67.8134 36.3674 68.7603 35.376C70.4365 33.5343 71.3315 31.1132 71.2563 28.624C71.2614 28.0176 71.2078 27.4121 71.0963 26.816L61.3843 26.896ZM133.88 29.136C133.463 27.9084 132.683 26.8364 131.643 26.0621C130.603 25.2878 129.352 24.8477 128.056 24.8C127.181 24.7983 126.315 24.9761 125.511 25.3224C124.707 25.6688 123.983 26.1763 123.383 26.8136C122.783 27.451 122.321 28.2045 122.024 29.0278C121.727 29.8511 121.602 30.7265 121.656 31.6C121.637 32.4942 121.798 33.3833 122.13 34.2139C122.461 35.0445 122.957 35.7998 123.588 36.4345C124.218 37.0692 124.97 37.5704 125.798 37.9081C126.626 38.2458 127.514 38.4131 128.408 38.4C129.527 38.406 130.631 38.1344 131.619 37.6094C132.608 37.0845 133.45 36.3226 134.072 35.392L131.752 33.792C131.406 34.3692 130.916 34.8467 130.33 35.1777C129.743 35.5086 129.081 35.6817 128.408 35.68C127.715 35.7064 127.03 35.5237 126.442 35.1556C125.855 34.7875 125.391 34.251 125.112 33.616L134.216 29.856L133.88 29.136ZM124.6 31.408C124.568 30.9131 124.634 30.4167 124.796 29.9479C124.958 29.4791 125.212 29.0473 125.543 28.6777C125.873 28.3082 126.275 28.0084 126.723 27.7959C127.171 27.5833 127.657 27.4623 128.152 27.44C128.668 27.406 129.183 27.5243 129.633 27.7803C130.082 28.0363 130.446 28.4187 130.68 28.88L124.6 31.408ZM117.208 38H120.2V18H117.208V38ZM112.312 26.32H112.2C111.749 25.8158 111.197 25.4127 110.579 25.1369C109.962 24.8612 109.293 24.7191 108.616 24.72C106.868 24.8048 105.219 25.5591 104.011 26.8265C102.804 28.094 102.13 29.7774 102.13 31.528C102.13 33.2786 102.804 34.962 104.011 36.2295C105.219 37.4969 106.868 38.2512 108.616 38.336C109.294 38.3474 109.967 38.21 110.586 37.9336C111.205 37.6572 111.756 37.2484 112.2 36.736H112.296V37.712C112.296 40.32 110.904 41.712 108.664 41.712C107.918 41.6945 107.194 41.4555 106.584 41.0252C105.975 40.595 105.507 39.993 105.24 39.296L102.632 40.384C103.123 41.5782 103.96 42.5985 105.034 43.314C106.109 44.0295 107.373 44.4077 108.664 44.4C112.168 44.4 115.064 42.336 115.064 37.312V25.2H112.312V26.32ZM108.888 35.728C107.856 35.637 106.896 35.1628 106.196 34.3987C105.496 33.6346 105.108 32.6361 105.108 31.6C105.108 30.5639 105.496 29.5654 106.196 28.8013C106.896 28.0372 107.856 27.5629 108.888 27.472C109.4 27.4982 109.901 27.6267 110.363 27.8496C110.824 28.0726 111.236 28.3857 111.574 28.7704C111.913 29.1551 112.171 29.6036 112.333 30.0896C112.496 30.5755 112.559 31.0891 112.52 31.6C112.564 32.1131 112.503 32.6297 112.341 33.1186C112.18 33.6075 111.92 34.0586 111.579 34.4444C111.238 34.8303 110.823 35.143 110.357 35.3636C109.892 35.5843 109.387 35.7082 108.872 35.728H108.888ZM147.896 18H140.744V38H143.736V30.416H147.912C148.765 30.4772 149.621 30.3622 150.427 30.078C151.234 29.7937 151.973 29.3464 152.599 28.764C153.224 28.1815 153.724 27.4764 154.065 26.6925C154.406 25.9087 154.582 25.0629 154.582 24.208C154.582 23.3531 154.406 22.5073 154.065 21.7235C153.724 20.9396 153.224 20.2345 152.599 19.652C151.973 19.0695 151.234 18.6223 150.427 18.338C149.621 18.0538 148.765 17.9387 147.912 18H147.896ZM147.896 27.6H143.72V20.784H147.96C148.87 20.784 149.743 21.1456 150.387 21.7892C151.031 22.4328 151.392 23.3058 151.392 24.216C151.392 25.1262 151.031 25.9992 150.387 26.6428C149.743 27.2864 148.87 27.648 147.96 27.648L147.896 27.6ZM166.344 24.72C165.255 24.6549 164.17 24.9094 163.224 25.4523C162.277 25.9953 161.51 26.8029 161.016 27.776L163.672 28.88C163.934 28.3973 164.331 28.0013 164.814 27.7399C165.297 27.4786 165.845 27.3632 166.392 27.408C166.772 27.3636 167.157 27.3953 167.524 27.5013C167.892 27.6073 168.234 27.7853 168.532 28.0251C168.83 28.2649 169.077 28.5616 169.259 28.8979C169.441 29.2343 169.554 29.6035 169.592 29.984V30.192C168.631 29.6832 167.56 29.4194 166.472 29.424C163.608 29.424 160.712 31.024 160.712 33.92C160.741 34.5375 160.892 35.1431 161.159 35.7009C161.425 36.2587 161.8 36.7575 162.263 37.1677C162.725 37.5779 163.265 37.8912 163.851 38.0891C164.436 38.287 165.056 38.3656 165.672 38.32C166.426 38.3741 167.18 38.2244 167.856 37.8865C168.531 37.5487 169.103 37.0352 169.512 36.4H169.608V38H172.488V30.304C172.488 26.8 169.832 24.768 166.424 24.768L166.344 24.72ZM165.976 35.68C165 35.68 163.64 35.184 163.64 33.984C163.64 32.384 165.336 31.856 166.84 31.856C167.791 31.8325 168.73 32.0646 169.56 32.528C169.46 33.3942 169.051 34.1951 168.407 34.7832C167.763 35.3712 166.928 35.7067 166.056 35.728L165.976 35.68ZM182.984 25.2L179.56 33.872H179.464L175.912 25.2H172.712L178.04 37.328L175 44.064H178.12L186.312 25.2H182.984ZM156.088 38H159.08V18H156.088V38Z" fill="white"/>
<path d="M52.3767 12.832H51.1927V9.63201H52.2007C52.6603 9.14496 53.0074 8.56296 53.2176 7.9271C53.4277 7.29124 53.4956 6.61701 53.4167 5.952V1.20001H59.8167V9.61601H60.8887V12.816H59.7047V10.8H52.3767V12.832ZM54.6007 6.00001C54.6754 7.29063 54.3574 8.5736 53.6887 9.68H58.4887V2.38401H54.6007V6.00001ZM70.4567 9.552C69.5213 10.4822 68.2558 11.0043 66.9367 11.0043C65.6176 11.0043 64.3521 10.4822 63.4167 9.552C62.5076 8.58964 62.001 7.31591 62.001 5.99201C62.001 4.66811 62.5076 3.39437 63.4167 2.43201C63.8778 1.9676 64.4261 1.59901 65.0303 1.34748C65.6344 1.09595 66.2823 0.966458 66.9367 0.966458C67.5911 0.966458 68.239 1.09595 68.8432 1.34748C69.4473 1.59901 69.9957 1.9676 70.4567 2.43201C71.3695 3.39253 71.8784 4.66696 71.8784 5.99201C71.8784 7.31705 71.3695 8.59148 70.4567 9.552ZM64.3287 8.752C65.0214 9.4418 65.9592 9.82908 66.9367 9.82908C67.9143 9.82908 68.852 9.4418 69.5447 8.752C70.2283 7.99844 70.607 7.01743 70.607 6.00001C70.607 4.98258 70.2283 4.00158 69.5447 3.24801C68.852 2.55821 67.9143 2.17093 66.9367 2.17093C65.9592 2.17093 65.0214 2.55821 64.3287 3.24801C63.6451 4.00158 63.2665 4.98258 63.2665 6.00001C63.2665 7.01743 63.6451 7.99844 64.3287 8.752ZM78.0887 11.008C77.4282 11.0211 76.7718 10.9005 76.1592 10.6532C75.5466 10.406 74.9903 10.0373 74.5239 9.56942C74.0575 9.10153 73.6906 8.54408 73.4453 7.93064C73.2001 7.31721 73.0815 6.66048 73.0967 6.00001C73.0815 5.33953 73.2001 4.6828 73.4453 4.06937C73.6906 3.45594 74.0575 2.89848 74.5239 2.43059C74.9903 1.96269 75.5466 1.59402 76.1592 1.34679C76.7718 1.09956 77.4282 0.978877 78.0887 0.992007C78.7582 0.97543 79.4227 1.11078 80.0324 1.3879C80.6421 1.66502 81.181 2.0767 81.6087 2.59201L80.7447 3.424C80.4287 3.0228 80.0212 2.70307 79.5564 2.49152C79.0915 2.27997 78.5828 2.18276 78.0727 2.208C77.5816 2.19524 77.093 2.28224 76.6365 2.46375C76.1799 2.64526 75.765 2.91751 75.4167 3.26401C74.723 4.02208 74.3383 5.01242 74.3383 6.04C74.3383 7.06759 74.723 8.05793 75.4167 8.81601C75.765 9.16251 76.1799 9.43475 76.6365 9.61626C77.093 9.79776 77.5816 9.88477 78.0727 9.87201C78.6359 9.86698 79.1909 9.73657 79.6973 9.49026C80.2038 9.24394 80.649 8.8879 81.0007 8.44801L81.8647 9.31201C81.4293 9.8402 80.883 10.2662 80.2647 10.56C79.5817 10.8693 78.8383 11.0224 78.0887 11.008ZM86.8887 10.8H85.6567V2.38401H82.9687V1.20001H89.5607V2.38401H86.8887V10.8ZM98.0407 1.20001L94.4087 9.296C94.2633 9.77492 93.9728 10.1969 93.5773 10.5035C93.1818 10.8102 92.7007 10.9865 92.2007 11.008C91.87 11.0038 91.5435 10.9331 91.2407 10.8L91.5607 9.66401C91.7551 9.77724 91.9757 9.83789 92.2007 9.84C92.4359 9.85772 92.6707 9.8018 92.8727 9.68C93.0655 9.51682 93.2141 9.30773 93.3047 9.07201L93.6567 8.30401L90.4567 1.21601H91.9127L94.2807 6.72001L96.5847 1.20001H98.0407ZM99.4327 10.8V1.20001H106.377V10.8H105.145V2.38401H100.665V10.8H99.4327ZM108.569 10.8V1.20001H109.801V5.31201H114.601V1.20001H115.833V10.8H114.601V6.46401H109.801V10.8H108.569ZM125.897 9.552C124.961 10.4822 123.696 11.0043 122.377 11.0043C121.058 11.0043 119.792 10.4822 118.857 9.552C117.948 8.58964 117.441 7.31591 117.441 5.99201C117.441 4.66811 117.948 3.39437 118.857 2.43201C119.318 1.9676 119.866 1.59901 120.47 1.34748C121.074 1.09595 121.722 0.966458 122.377 0.966458C123.031 0.966458 123.679 1.09595 124.283 1.34748C124.887 1.59901 125.436 1.9676 125.897 2.43201C126.809 3.39253 127.318 4.66696 127.318 5.99201C127.318 7.31705 126.809 8.59148 125.897 9.552ZM119.769 8.752C120.461 9.4418 121.399 9.82908 122.377 9.82908C123.354 9.82908 124.292 9.4418 124.985 8.752C125.668 7.99844 126.047 7.01743 126.047 6.00001C126.047 4.98258 125.668 4.00158 124.985 3.24801C124.292 2.55821 123.354 2.17093 122.377 2.17093C121.399 2.17093 120.461 2.55821 119.769 3.24801C119.085 4.00158 118.706 4.98258 118.706 6.00001C118.706 7.01743 119.085 7.99844 119.769 8.752ZM132.345 10.8V1.20001H135.817C136.538 1.18639 137.236 1.44982 137.769 1.936C138.036 2.16803 138.249 2.45597 138.393 2.77946C138.537 3.10295 138.608 3.45407 138.601 3.808C138.608 4.2345 138.485 4.65314 138.249 5.008C138.014 5.35269 137.687 5.62437 137.305 5.79201C137.769 5.94564 138.176 6.23558 138.473 6.624C138.78 7.01601 138.944 7.50174 138.937 8.00001C138.945 8.36886 138.872 8.73498 138.722 9.07235C138.573 9.40972 138.351 9.71005 138.073 9.952C137.516 10.4659 136.783 10.7465 136.025 10.736L132.345 10.8ZM133.577 5.31201H135.817C136.026 5.32074 136.234 5.28375 136.428 5.20361C136.621 5.12348 136.795 5.00212 136.937 4.84801C137.078 4.71956 137.193 4.56389 137.273 4.39029C137.353 4.21669 137.397 4.02872 137.403 3.83759C137.409 3.64646 137.377 3.45608 137.308 3.27782C137.238 3.09955 137.134 2.93705 137.001 2.80001C136.867 2.64876 136.702 2.52879 136.516 2.4486C136.331 2.36842 136.13 2.32997 135.929 2.336H133.641L133.577 5.31201ZM133.577 9.61601H136.057C136.273 9.62328 136.489 9.58258 136.688 9.49684C136.887 9.4111 137.065 9.28242 137.209 9.12001C137.491 8.82741 137.651 8.43841 137.657 8.03201C137.657 7.60766 137.488 7.20069 137.188 6.90063C136.888 6.60058 136.481 6.43201 136.057 6.43201H133.625L133.577 9.61601Z" fill="white"/>
<path fill-rule="evenodd" clip-rule="evenodd" d="M66.9367 1.12646C66.3034 1.12646 65.6764 1.25177 65.0918 1.49519C64.5077 1.73835 63.9775 2.09456 63.5317 2.54332C62.6514 3.47581 62.161 4.70963 62.161 5.99201C62.161 7.27421 62.6513 8.50786 63.5313 9.44031C64.4365 10.3396 65.6607 10.8443 66.9367 10.8443C68.2128 10.8443 69.437 10.3395 70.3423 9.44017C71.2258 8.50956 71.7184 7.27528 71.7184 5.99201C71.7184 4.70856 71.2257 3.47413 70.3419 2.54349C69.896 2.09464 69.3658 1.73838 68.7817 1.49519C68.197 1.25177 67.57 1.12646 66.9367 1.12646ZM64.9688 1.19977C65.5924 0.940129 66.2612 0.806458 66.9367 0.806458C67.6122 0.806458 68.281 0.940129 68.9047 1.19977C69.5283 1.45941 70.0944 1.83989 70.5703 2.31928L70.5727 2.32176C71.5138 3.31203 72.0384 4.62594 72.0384 5.99201C72.0384 7.35808 71.5137 8.67196 70.5727 9.66222L70.5696 9.6655C69.6042 10.6255 68.2981 11.1643 66.9367 11.1643C65.5753 11.1643 64.2692 10.6254 63.3039 9.66546L63.3004 9.66193C62.3631 8.66987 61.841 7.35677 61.841 5.99201C61.841 4.62724 62.3632 3.3142 63.3004 2.32213L63.3031 2.31925C63.779 1.83986 64.3451 1.45941 64.9688 1.19977ZM122.377 1.12646C121.743 1.12646 121.116 1.25177 120.532 1.49519C119.948 1.73833 119.418 2.09451 118.972 2.54325C118.091 3.47575 117.601 4.70959 117.601 5.99201C117.601 7.27422 118.091 8.50788 118.971 9.44032C119.877 10.3396 121.101 10.8443 122.377 10.8443C123.653 10.8443 124.877 10.3395 125.782 9.44007C126.666 8.50948 127.158 7.27524 127.158 5.99201C127.158 4.70859 126.666 3.47417 125.782 2.54353C125.336 2.09467 124.806 1.73838 124.222 1.49519C123.637 1.25177 123.01 1.12646 122.377 1.12646ZM120.409 1.19977C121.032 0.940129 121.701 0.806458 122.377 0.806458C123.052 0.806458 123.721 0.940129 124.345 1.19977C124.968 1.45941 125.534 1.83989 126.01 2.31928L126.013 2.32176C126.954 3.31205 127.478 4.62594 127.478 5.99201C127.478 7.35808 126.954 8.67196 126.013 9.66222L126.01 9.6655C125.044 10.6255 123.738 11.1643 122.377 11.1643C121.015 11.1643 119.709 10.6254 118.744 9.66546L118.74 9.66193C117.803 8.66987 117.281 7.35677 117.281 5.99201C117.281 4.62724 117.803 3.31419 118.74 2.32213L118.743 2.31925C119.219 1.83986 119.785 1.45941 120.409 1.19977ZM79.9662 1.53356C79.3785 1.26645 78.738 1.13598 78.0927 1.15196L78.0855 1.15213C77.4466 1.13943 76.8117 1.25601 76.2191 1.49517C75.6265 1.73432 75.0884 2.09094 74.6372 2.54354C74.186 2.99615 73.8312 3.53538 73.5939 4.12877C73.3566 4.72216 73.2419 5.35742 73.2567 5.99631L73.2568 6.0037C73.2421 6.64259 73.3566 7.27785 73.5939 7.87124C73.8312 8.46463 74.186 9.00386 74.6372 9.45647C75.0884 9.90907 75.6265 10.2657 76.2191 10.5048C76.8117 10.744 77.4466 10.8607 78.0855 10.848L78.0887 11.008L78.0918 10.848C78.8171 10.8619 79.5364 10.714 80.1973 10.4149C80.7502 10.152 81.2434 9.77956 81.6471 9.32071L81.0112 8.68473C80.6644 9.08049 80.2416 9.40348 79.7673 9.63414C79.2399 9.89065 78.662 10.0266 78.0755 10.032C77.5632 10.0451 77.0536 9.95427 76.5774 9.76494C76.1007 9.57543 75.6675 9.2912 75.3039 8.92943L75.2986 8.92414C74.5778 8.13657 74.1783 7.10757 74.1783 6.04C74.1783 4.97244 74.578 3.94356 75.2987 3.15599L75.3037 3.15046C75.6674 2.78869 76.1007 2.50458 76.5774 2.31507C77.0521 2.12631 77.5601 2.03544 78.0708 2.04791C78.6044 2.02246 79.1364 2.1246 79.6227 2.34589C80.0572 2.54363 80.4439 2.83139 80.7577 3.18938L81.3888 2.58163C80.9932 2.13736 80.5087 1.78018 79.9662 1.53356ZM78.0888 11.168C77.4077 11.1812 76.731 11.0565 76.0993 10.8016C75.4667 10.5463 74.8922 10.1656 74.4106 9.68238C73.9289 9.19919 73.5501 8.62352 73.2968 7.99004C73.0439 7.35771 72.9215 6.68082 72.9367 6.00001C72.9215 5.31919 73.0439 4.6423 73.2968 4.00997C73.5501 3.37649 73.9289 2.80082 74.4106 2.31763C74.8922 1.83444 75.4667 1.45373 76.0993 1.19842C76.7309 0.943551 77.4074 0.818915 78.0883 0.831969C78.7808 0.815362 79.468 0.955613 80.0986 1.24224C80.7303 1.52937 81.2887 1.95591 81.7318 2.48982L81.8267 2.60417L80.7284 3.66185L80.619 3.52301C80.3188 3.14186 79.9317 2.83812 79.4901 2.63715C79.0485 2.43618 78.5652 2.34382 78.0806 2.36781L78.0685 2.36841C77.5991 2.3562 77.132 2.43892 76.6956 2.61243C76.2603 2.78548 75.8646 3.04481 75.5322 3.37479C74.8671 4.10301 74.4983 5.05366 74.4983 6.04C74.4983 7.02635 74.8671 7.977 75.5322 8.70522C75.8646 9.0352 76.2603 9.29453 76.6956 9.46758C77.132 9.64109 77.5991 9.72426 78.0686 9.71206L78.0713 9.71201C78.6107 9.7072 79.1423 9.58229 79.6274 9.34637C80.1125 9.11045 80.5389 8.76943 80.8757 8.3481L80.9874 8.20842L82.0806 9.30164L81.9882 9.41378C81.5378 9.96007 80.9729 10.4007 80.3334 10.7045L80.3307 10.7058C79.627 11.0245 78.8611 11.1824 78.0888 11.168ZM137.661 2.05416C137.159 1.59559 136.5 1.34714 135.82 1.35998L135.817 1.36001H132.505V10.6372L136.022 10.576L136.027 10.576C136.744 10.586 137.437 10.3205 137.964 9.8344L137.968 9.83116C138.229 9.60462 138.436 9.32347 138.576 9.00759C138.716 8.69171 138.784 8.3489 138.777 8.00355L138.777 7.99761C138.784 7.53598 138.632 7.08597 138.347 6.72279L138.346 6.72116C138.068 6.35829 137.688 6.08743 137.254 5.9439L136.859 5.81295L137.24 5.6455C137.595 5.49005 137.898 5.23819 138.116 4.91867C138.334 4.59101 138.448 4.20454 138.441 3.81082V3.80487C138.447 3.47438 138.381 3.1465 138.247 2.84444C138.112 2.54238 137.913 2.2735 137.664 2.05684L137.661 2.05416ZM137.875 1.81655C137.313 1.30391 136.576 1.02603 135.815 1.04001H132.185V10.9628L136.022 10.896L136.025 10.896C136.822 10.9064 137.593 10.6113 138.179 10.0712C138.475 9.81413 138.71 9.49523 138.869 9.13711C139.027 8.77917 139.105 8.3908 139.097 7.99947L139.097 8.0024L138.937 8.00001L139.097 7.99646L139.097 7.99947C139.104 7.46592 138.928 6.94592 138.599 6.52599C138.354 6.2061 138.04 5.94894 137.681 5.77314C137.957 5.59929 138.196 5.36987 138.381 5.09811L138.382 5.09679C138.636 4.71565 138.768 4.26616 138.761 3.80812L138.761 3.81114L138.601 3.808L138.761 3.80519L138.761 3.80812C138.768 3.43177 138.692 3.05847 138.539 2.71448C138.386 2.37021 138.16 2.0637 137.875 1.81655ZM53.2567 1.04001H59.9767V9.45601H61.0487V12.976H59.5447V10.96H52.5367V12.992H51.0327V9.47201H52.131C52.5514 9.0124 52.87 8.46883 53.0656 7.8769C53.2684 7.26327 53.334 6.61262 53.2578 5.97086L53.2567 5.96147V1.04001ZM53.5767 1.36001V5.94262C53.6566 6.62781 53.5859 7.32223 53.3695 7.9773C53.152 8.63539 52.7928 9.23774 52.3171 9.74182L52.2697 9.79201H51.3527V12.672H52.2167V10.64H59.8647V12.656H60.7287V9.77601H59.6567V1.36001H53.5767ZM82.8087 1.04001H89.7207V2.54401H87.0487V10.96H85.4967V2.54401H82.8087V1.04001ZM83.1287 1.36001V2.22401H85.8167V10.64H86.7287V2.22401H89.4007V1.36001H83.1287ZM96.4781 1.04001H98.2879L94.5588 9.35237C94.4028 9.85892 94.0943 10.3051 93.6753 10.63C93.2536 10.957 92.7407 11.1449 92.2076 11.1679L92.1987 11.1682C91.8465 11.1638 91.4988 11.0882 91.1763 10.9465L91.049 10.8905L91.4627 9.42179L91.6412 9.52574C91.8117 9.62499 92.005 9.67816 92.2022 9.68001L92.2128 9.68011C92.4106 9.69501 92.6081 9.64961 92.7792 9.54947C92.9467 9.40491 93.0759 9.22118 93.1554 9.01457L93.159 9.00521L93.4809 8.30351L90.2089 1.05601H92.0181L94.2785 6.30997L96.4781 1.04001ZM96.6913 1.36001L94.283 7.13004L91.8074 1.37601H90.7045L93.8325 8.30451L93.4522 9.13425C93.3517 9.39309 93.188 9.62269 92.9761 9.80212L92.9663 9.8104L92.9553 9.81702C92.7264 9.95506 92.4605 10.0189 92.194 9.99994C92.0111 9.99756 91.8309 9.96077 91.6627 9.8921L91.4336 10.7054C91.6783 10.7958 91.9368 10.8441 92.1983 10.848C92.6636 10.827 93.1111 10.6626 93.4792 10.3771C93.8486 10.0907 94.1199 9.69673 94.2556 9.24953L94.2586 9.2398L97.7936 1.36001H96.6913ZM99.2727 1.04001H106.537V10.96H104.985V2.54401H100.825V10.96H99.2727V1.04001ZM99.5927 1.36001V10.64H100.505V2.22401H105.305V10.64H106.217V1.36001H99.5927ZM108.409 1.04001H109.961V5.152H114.441V1.04001H115.993V10.96H114.441V6.62401H109.961V10.96H108.409V1.04001ZM108.729 1.36001V10.64H109.641V6.30401H114.761V10.64H115.673V1.36001H114.761V5.472H109.641V1.36001H108.729ZM64.2158 3.13463C64.9385 2.41498 65.9168 2.01093 66.9367 2.01093C67.9566 2.01093 68.9349 2.41498 69.6576 3.13463L69.6634 3.14037C70.3737 3.92337 70.767 4.94284 70.767 6.00001C70.767 7.05717 70.3735 8.0765 69.6632 8.8595L69.6578 8.86552C68.9351 9.58518 67.9566 9.98908 66.9367 9.98908C65.9168 9.98908 64.9385 9.58504 64.2158 8.86538L64.3287 8.752L64.2102 8.8595C63.4999 8.0765 63.1065 7.05717 63.1065 6.00001C63.1065 4.94284 63.4999 3.92351 64.2102 3.14051L64.2158 3.13463ZM64.4445 8.64149C65.1069 9.29964 66.0028 9.66908 66.9367 9.66908C67.8706 9.66908 68.7665 9.29964 69.4289 8.64149C70.0841 7.91776 70.447 6.97633 70.447 6.00001C70.447 5.02368 70.0841 4.08225 69.4289 3.35852C68.7665 2.70037 67.8706 2.33093 66.9367 2.33093C66.0028 2.33093 65.1069 2.70037 64.4445 3.35852C63.7893 4.08225 63.4265 5.02368 63.4265 6.00001C63.4265 6.97633 63.7893 7.91776 64.4445 8.64149ZM119.656 3.13463C120.378 2.41498 121.357 2.01093 122.377 2.01093C123.397 2.01093 124.375 2.41498 125.098 3.13463L125.103 3.14037C125.814 3.92337 126.207 4.94284 126.207 6.00001C126.207 7.05717 125.813 8.0765 125.103 8.8595L125.098 8.86552C124.375 9.58518 123.397 9.98908 122.377 9.98908C121.357 9.98908 120.378 9.58504 119.656 8.86538L119.769 8.752L119.65 8.8595C118.94 8.0765 118.546 7.05717 118.546 6.00001C118.546 4.94284 118.94 3.92351 119.65 3.14051L119.656 3.13463ZM119.885 8.64151C120.547 9.29964 121.443 9.66908 122.377 9.66908C123.311 9.66908 124.207 9.29964 124.869 8.64151C125.524 7.91777 125.887 6.97634 125.887 6.00001C125.887 5.02367 125.524 4.08224 124.869 3.3585C124.207 2.70037 123.311 2.33093 122.377 2.33093C121.443 2.33093 120.547 2.70037 119.885 3.3585C119.229 4.08224 118.866 5.02367 118.866 6.00001C118.866 6.97634 119.229 7.91777 119.885 8.64151ZM135.926 2.176C136.151 2.16966 136.374 2.21258 136.58 2.30177C136.786 2.39079 136.969 2.52373 137.118 2.69125C137.265 2.8431 137.38 3.02285 137.457 3.21992C137.534 3.41821 137.57 3.62998 137.563 3.84259C137.557 4.05519 137.507 4.26428 137.418 4.45739C137.33 4.6483 137.205 4.81972 137.05 4.96165C136.893 5.13036 136.702 5.26332 136.489 5.35143C136.275 5.44003 136.045 5.48116 135.813 5.472H133.413L133.484 2.176H135.926ZM136.453 2.59544C136.289 2.52458 136.112 2.4906 135.933 2.49593L135.929 2.496H133.797L133.74 5.152H135.823C136.009 5.15977 136.195 5.12703 136.367 5.0558C136.539 4.98456 136.693 4.87669 136.819 4.7397L136.824 4.73436L136.829 4.72948C136.955 4.61546 137.056 4.47728 137.128 4.32319C137.199 4.1691 137.238 4.00225 137.244 3.83259C137.249 3.66294 137.22 3.49396 137.159 3.33572C137.097 3.17748 137.004 3.03324 136.886 2.91159L136.881 2.9061C136.763 2.77244 136.617 2.6663 136.453 2.59544ZM54.4407 2.22401H58.6487V9.84H53.4051L53.5518 9.59724C54.2038 8.5185 54.5138 7.2676 54.441 6.00924L54.4404 6.00001L54.4407 2.22401ZM54.7607 2.54401V5.99541C54.8309 7.22337 54.5543 8.4444 53.9654 9.52H58.3287V2.54401H54.7607ZM133.467 6.27201H136.057C136.524 6.27201 136.971 6.45743 137.301 6.7875C137.631 7.11756 137.817 7.56522 137.817 8.03201L137.817 8.03426C137.81 8.48021 137.635 8.90709 137.326 9.22868C137.167 9.40748 136.971 9.54921 136.751 9.6438C136.532 9.7385 136.293 9.78363 136.054 9.77601H133.414L133.467 6.27201ZM133.782 6.59201L133.739 9.45601H136.062C136.255 9.46249 136.447 9.42631 136.625 9.34988C136.802 9.27346 136.961 9.15877 137.089 9.01401L137.093 9.00885C137.347 8.74577 137.491 8.39621 137.497 8.03084C137.496 7.64935 137.345 7.28355 137.075 7.01377C136.805 6.74372 136.439 6.59201 136.057 6.59201H133.782Z" fill="white"/>
<path d="M1.70414 2.064C1.18264 2.68977 0.91942 3.49087 0.968134 4.304V39.696C0.91942 40.5091 1.18264 41.3102 1.70414 41.936L1.81613 42.048L21.6401 22.24V21.776L1.81613 1.952L1.70414 2.064Z" fill="url(#paint0_linear)"/>
<path d="M28.2001 28.848L21.6401 22.24V21.776L28.2001 15.152L28.3441 15.232L36.2001 19.696C38.4401 20.96 38.4401 23.04 36.2001 24.32L28.3761 28.768L28.2001 28.848Z" fill="url(#paint1_linear)"/>
<path d="M28.3921 28.752L21.6401 22L1.7041 41.936C2.16068 42.3374 2.74313 42.5666 3.35079 42.5842C3.95845 42.6017 4.55314 42.4064 5.0321 42.032L28.4081 28.752" fill="url(#paint2_linear)"/>
<path d="M28.392 15.248L5.01599 1.968C4.53703 1.59362 3.94234 1.39832 3.33468 1.41585C2.72702 1.43338 2.14457 1.66264 1.68799 2.064L21.64 22L28.392 15.248Z" fill="url(#paint3_linear)"/>
<path opacity="0.2" d="M28.2001 28.608L5.0161 41.808C4.55416 42.1534 3.99287 42.34 3.4161 42.34C2.83933 42.34 2.27804 42.1534 1.8161 41.808L1.7041 41.92L1.8161 42.032C2.27699 42.3798 2.83868 42.568 3.4161 42.568C3.99352 42.568 4.55521 42.3798 5.0161 42.032L28.3921 28.752L28.2001 28.608Z" fill="black"/>
<path opacity="0.12" d="M1.70414 41.712C1.18264 41.0862 0.91942 40.2851 0.968134 39.472V39.712C0.91942 40.5251 1.18264 41.3262 1.70414 41.952L1.81614 41.84L1.70414 41.712ZM36.2001 24.08L28.2001 28.608L28.3441 28.752L36.2001 24.304C36.6459 24.0946 37.0285 23.7713 37.3095 23.3668C37.5904 22.9623 37.7596 22.4908 37.8001 22C37.7102 22.4459 37.5192 22.8653 37.2418 23.2259C36.9644 23.5865 36.6081 23.8786 36.2001 24.08Z" fill="black"/>
<path opacity="0.25" d="M5.01615 2.19141L36.2001 19.9194C36.6081 20.1208 36.9644 20.413 37.2418 20.7735C37.5192 21.1341 37.7102 21.5535 37.8001 21.9994C37.7596 21.5086 37.5904 21.0371 37.3095 20.6326C37.0285 20.2281 36.6459 19.9048 36.2001 19.6954L5.01615 1.96741C2.77615 0.703411 0.952148 1.75941 0.952148 4.31941V4.55941C1.00015 1.98341 2.79215 0.927413 5.01615 2.19141Z" fill="white"/>
<defs>
<linearGradient id="paint0_linear" x1="19.8801" y1="3.936" x2="-6.96787" y2="30.784" gradientUnits="userSpaceOnUse">
<stop stop-color="#00A0FF"/>
<stop offset="0.01" stop-color="#00A1FF"/>
<stop offset="0.26" stop-color="#00BEFF"/>
<stop offset="0.51" stop-color="#00D2FF"/>
<stop offset="0.76" stop-color="#00DFFF"/>
<stop offset="1" stop-color="#00E3FF"/>
</linearGradient>
<linearGradient id="paint1_linear" x1="39.1281" y1="22" x2="0.424142" y2="22" gradientUnits="userSpaceOnUse">
<stop stop-color="#FFE000"/>
<stop offset="0.41" stop-color="#FFBD00"/>
<stop offset="0.78" stop-color="#FFA500"/>
<stop offset="1" stop-color="#FF9C00"/>
</linearGradient>
<linearGradient id="paint2_linear" x1="24.7281" y1="25.68" x2="-11.6879" y2="62.08" gradientUnits="userSpaceOnUse">
<stop stop-color="#FF3A44"/>
<stop offset="1" stop-color="#C31162"/>
</linearGradient>
<linearGradient id="paint3_linear" x1="-3.32001" y1="-9.712" x2="12.936" y2="6.544" gradientUnits="userSpaceOnUse">
<stop stop-color="#32A071"/>
<stop offset="0.07" stop-color="#2DA771"/>
<stop offset="0.48" stop-color="#15CF74"/>
<stop offset="0.8" stop-color="#06E775"/>
<stop offset="1" stop-color="#00F076"/>
</linearGradient>
</defs>
</svg>
