<svg width="19" height="17" viewBox="0 0 19 17" fill="none" xmlns="http://www.w3.org/2000/svg">
<path d="M5.08006 16C8.06747 16.1 10.9683 14.9876 13.123 12.9159C15.2776 10.8441 16.5028 7.98907 16.5201 5.00005C17.1977 4.16146 17.7009 3.19588 18.0001 2.16005C18.0457 1.99287 17.9889 1.81449 17.8551 1.70441C17.7213 1.59433 17.5353 1.57305 17.3801 1.65005C16.6531 1.99998 15.7839 1.84707 15.2201 1.27005C14.5108 0.493378 13.5173 0.0370087 12.466 0.00498011C11.4147 -0.0270484 10.3953 0.367994 9.64006 1.10005C8.59903 2.10824 8.16259 3.58832 8.49006 5.00005C5.14006 5.20005 2.84006 3.61005 1.00006 1.43005C0.887113 1.30213 0.709213 1.25312 0.546689 1.30512C0.384164 1.35713 0.267771 1.50032 0.250064 1.67005C-0.46782 5.65221 1.36693 9.66074 4.85006 11.72C3.7097 13.0279 2.10827 13.8447 0.380064 14C0.190244 14.0315 0.0414399 14.1802 0.00980748 14.37C-0.021825 14.5598 0.0707135 14.7487 0.240064 14.84C1.74358 15.5914 3.39929 15.9882 5.08006 16Z" fill="white"/>
</svg>
