<svg width="71" height="70" viewBox="0 0 71 70" fill="none" xmlns="http://www.w3.org/2000/svg">
<path d="M32.1926 42H34.0392L40.5165 29.1023V27.4545H31.1983V29.017H38.6983V29.1307L32.1926 42Z" fill="#865FB7"/>
<path fill-rule="evenodd" clip-rule="evenodd" d="M35.9453 70C55.2753 70 70.9453 54.33 70.9453 35C70.9453 15.67 55.2753 0 35.9453 0C16.6153 0 0.945312 15.67 0.945312 35C0.945312 54.33 16.6153 70 35.9453 70ZM35.9453 68C54.1707 68 68.9453 53.2254 68.9453 35C68.9453 16.7746 54.1707 1.99996 35.9453 1.99996C17.7199 1.99996 2.9453 16.7746 2.9453 35C2.9453 53.2254 17.7199 68 35.9453 68Z" fill="#865FB7"/>
</svg>
