<?xml version="1.0" encoding="utf-8"?><svg xmlns="http://www.w3.org/2000/svg" xmlns:xlink="http://www.w3.org/1999/xlink"><symbol viewBox="0 0 93 109" id="ic-android" xmlns="http://www.w3.org/2000/svg"><path d="M57.879 109c3.644 0 6.822-3.178 6.822-6.823V86.243h4.556c2.734 0 4.556-1.822 4.556-4.555v-45.51H19.189v45.51c0 2.733 1.822 4.555 4.555 4.555H28.3v15.935c0 3.644 3.178 6.822 6.823 6.822 3.644 0 6.822-3.178 6.822-6.822V86.244h9.111v15.934c0 3.644 3.178 6.822 6.823 6.822zm27.313-27.312c3.644 0 6.822-3.178 6.822-6.823V42.998c0-3.626-3.178-6.82-6.822-6.82-3.645 0-6.823 3.194-6.823 6.82v31.867c0 3.645 3.178 6.823 6.823 6.823zm-77.382 0c3.645 0 6.823-3.178 6.823-6.823V42.998c0-3.626-3.177-6.82-6.823-6.82-3.644 0-6.822 3.194-6.822 6.82v31.867c0 3.645 3.178 6.823 6.822 6.823zM68.346.687c-.911-.916-2.267-.916-3.178 0l-6.11 6.09-.282.282c-3.623-1.814-7.685-2.72-12.209-2.73h-.133c-4.524.01-8.586.916-12.209 2.73l-.282-.282-6.11-6.09c-.911-.916-2.267-.916-3.177 0-.912.912-.912 2.265 0 3.175l5.91 5.912a24.626 24.626 0 00-5.133 4.607c-3.596 4.262-5.889 9.808-6.204 15.818-.003.062-.01.124-.012.187-.02.409-.028.82-.028 1.233h54.624c0-.413-.01-.824-.029-1.233-.003-.063-.009-.125-.012-.187-.315-6.01-2.609-11.556-6.204-15.817a24.607 24.607 0 00-5.134-4.608l5.912-5.911c.911-.911.911-2.264 0-3.176zM35.114 23.665a3.413 3.413 0 110-6.826 3.413 3.413 0 010 6.826zm22.773 0a3.413 3.413 0 110-6.826 3.413 3.413 0 010 6.826z"/></symbol><symbol viewBox="0 0 74 90" id="ic-apple" xmlns="http://www.w3.org/2000/svg"><path d="M54.319 0h.64c.514 6.347-1.909 11.09-4.853 14.524-2.89 3.41-6.845 6.718-13.244 6.216-.426-6.256 2-10.646 4.94-14.073C44.53 3.474 49.53.632 54.32 0zm19.369 66.062v.178c-1.798 5.446-4.363 10.113-7.493 14.445-2.857 3.932-6.359 9.224-12.61 9.224-5.403 0-8.992-3.474-14.529-3.569-5.857-.095-9.077 2.905-14.432 3.66h-1.826c-3.933-.57-7.106-3.683-9.418-6.49-6.817-8.29-12.085-19-13.066-32.707v-4.027c.415-9.809 5.182-17.784 11.517-21.649 3.343-2.055 7.94-3.806 13.057-3.023 2.194.34 4.434 1.09 6.399 1.833 1.861.716 4.189 1.984 6.394 1.917 1.494-.043 2.98-.822 4.486-1.371 4.41-1.593 8.734-3.419 14.432-2.561 6.85 1.035 11.71 4.078 14.714 8.773-5.794 3.688-10.374 9.244-9.592 18.733.696 8.62 5.707 13.662 11.967 16.634z"/></symbol><symbol viewBox="0 0 71 72" id="ic-client" xmlns="http://www.w3.org/2000/svg"><path d="M30.58 43.199c2.82 0 4.914-1.769 4.914-4.148 0-1.846-1.093-3.189-2.926-3.494v-.114c1.47-.447 2.387-1.655 2.387-3.295 0-2.06-1.627-3.892-4.318-3.892-2.515 0-4.603 1.548-4.688 3.835h1.704c.065-1.449 1.442-2.301 2.955-2.301 1.605 0 2.642.973 2.642 2.443 0 1.534-1.2 2.528-2.926 2.528h-1.165v1.563h1.165c2.209 0 3.437 1.122 3.437 2.727 0 1.541-1.342 2.585-3.21 2.585-1.683 0-3.018-.866-3.125-2.272h-1.79c.107 2.287 2.124 3.835 4.944 3.835zm12.035 0c2.77 0 4.8-2.046 4.8-4.83 0-2.82-1.96-4.886-4.63-4.886-.98 0-1.932.348-2.528.824h-.086l.512-4.29h6.08v-1.563h-7.557l-.881 7.16 1.647.199c.604-.434 1.634-.746 2.529-.74 1.854.015 3.21 1.421 3.21 3.325 0 1.868-1.307 3.238-3.096 3.238-1.492 0-2.678-.958-2.813-2.272h-1.705c.107 2.216 2.018 3.835 4.518 3.835z"/><path fill-rule="evenodd" clip-rule="evenodd" d="M42.888 70.305C61.834 66.47 74.084 48.003 70.25 29.057 66.415 10.111 47.948-2.139 29.002 1.696 10.057 5.53-2.194 23.997 1.641 42.943c3.834 18.946 22.301 31.196 41.247 27.362zM35.945 69c18.226 0 33-14.775 33-33s-14.774-33-33-33c-18.225 0-33 14.775-33 33s14.775 33 33 33z"/></symbol><symbol viewBox="0 0 72 72" id="ic-coffe" xmlns="http://www.w3.org/2000/svg"><path d="M25.967 28.454h-1.761l-3.637 2.415v1.79l3.552-2.358h.085V43h1.761V28.454zM34.366 43.2c2.77 0 4.8-2.046 4.8-4.83 0-2.82-1.96-4.886-4.63-4.886-.98 0-1.932.348-2.528.824h-.086l.512-4.29h6.08v-1.563h-7.558l-.88 7.16 1.648.199c.603-.434 1.633-.746 2.528-.74 1.854.015 3.21 1.421 3.21 3.325 0 1.868-1.307 3.238-3.096 3.238-1.492 0-2.678-.958-2.813-2.272H29.85c.106 2.216 2.017 3.835 4.517 3.835zm12.036 0c3.21 0 5.057-2.72 5.057-7.472 0-4.716-1.875-7.471-5.057-7.471-3.182 0-5.057 2.755-5.057 7.471 0 4.752 1.847 7.472 5.057 7.472zm0-1.563c-2.116 0-3.352-2.123-3.352-5.909 0-3.778 1.25-5.937 3.352-5.937s3.352 2.159 3.352 5.937c0 3.786-1.235 5.91-3.352 5.91z"/><path fill-rule="evenodd" clip-rule="evenodd" d="M7.682 56.57c11.36 15.64 33.248 19.108 48.887 7.748 15.64-11.36 19.108-33.248 7.748-48.888C52.957-.209 31.07-3.678 15.43 7.682S-3.678 40.93 7.682 56.57zM36 69c18.225 0 33-14.775 33-33S54.225 3 36 3C17.774 3 3 17.775 3 36s14.774 33 33 33z"/></symbol><symbol viewBox="0 0 11 19" id="ic-fb" xmlns="http://www.w3.org/2000/svg"><path d="M11 1.5a.5.5 0 00-.5-.5H8a4.77 4.77 0 00-5 4.5v2.7H.5a.5.5 0 00-.5.5v2.6a.5.5 0 00.5.5H3v6.7a.5.5 0 00.5.5h3a.5.5 0 00.5-.5v-6.7h2.62a.5.5 0 00.49-.37l.72-2.6a.5.5 0 00-.48-.63H7V5.5a1 1 0 011-.9h2.5a.5.5 0 00.5-.5V1.5z"/></symbol><symbol viewBox="0 0 18 18" id="ic-g" xmlns="http://www.w3.org/2000/svg"><path d="M13.583 10.667a4.592 4.592 0 01-3.75 3.275A5.125 5.125 0 014 9.4 5 5 0 019 4a5.1 5.1 0 011.892.367.417.417 0 00.533-.175l1.2-2.209a.434.434 0 00-.192-.583A8.333 8.333 0 00.667 9.242a8.433 8.433 0 007.975 8.091 8.333 8.333 0 008.691-7.9V7.767a.425.425 0 00-.416-.417h-7.5A.417.417 0 009 7.767v2.5c0 .23.186.416.417.416h4.166"/></symbol><symbol viewBox="0 0 24 24" id="ic-in" xmlns="http://www.w3.org/2000/svg"><path opacity=".01" d="M24 24H0V0h24z"/><path d="M15.15 8.4a5.83 5.83 0 00-5.85 5.82v5.88a.9.9 0 00.9.9h2.1a.9.9 0 00.9-.9v-5.88a1.94 1.94 0 012.15-1.93 2 2 0 011.75 2v5.81a.9.9 0 00.9.9h2.1a.9.9 0 00.9-.9v-5.88a5.83 5.83 0 00-5.85-5.82z"/><rect x="3" y="9.3" width="4.5" height="11.7" rx=".9"/><circle cx="5.25" cy="5.25" r="2.25"/></symbol><symbol viewBox="0 0 109 95" id="ic-landing" xmlns="http://www.w3.org/2000/svg"><path d="M105.807.025H89.84v19.16H109V3.22a3.193 3.193 0 00-3.193-3.194zm-22.354 0H3.193A3.193 3.193 0 000 3.22v15.967h83.453V.026zM23.418 47.5h19.16v19.16h-19.16V47.5z"/><path d="M0 91.781a3.193 3.193 0 003.193 3.194h102.614A3.194 3.194 0 00109 91.78V25.572H0v66.21zm76.853-50.668h11.922a3.193 3.193 0 010 6.387H76.853a3.193 3.193 0 010-6.387zm-6.386 12.774h18.308a3.193 3.193 0 010 6.386H70.467a3.193 3.193 0 110-6.386zm0 12.773h18.308a3.193 3.193 0 110 6.387H70.467a3.193 3.193 0 010-6.387zM17.03 44.307a3.193 3.193 0 013.194-3.194h25.547a3.193 3.193 0 013.193 3.194v25.546a3.193 3.193 0 01-3.194 3.194H20.226a3.193 3.193 0 01-3.194-3.194V44.307z"/></symbol><symbol viewBox="0 0 24 10" id="ic-link-arrow" xmlns="http://www.w3.org/2000/svg"><path d="M23.46 5.46a.65.65 0 000-.92L19.323.404a.65.65 0 10-.92.919L22.082 5l-3.677 3.677a.65.65 0 00.919.92L23.46 5.46zM0 5.65h23v-1.3H0v1.3z"/></symbol><symbol viewBox="0 0 30 30" id="ic-plus" xmlns="http://www.w3.org/2000/svg"><path d="M12.004 30h5.97V17.973H30v-5.969H17.973V0h-5.969v12.004H0v5.97h12.004V30z"/></symbol><symbol viewBox="0 0 70 70" id="ic-project" xmlns="http://www.w3.org/2000/svg"><path d="M24.866 42h9.176v-1.563h-6.761v-.113l3.267-3.494c2.5-2.678 3.238-3.928 3.238-5.54 0-2.244-1.818-4.034-4.375-4.034-2.55 0-4.488 1.733-4.488 4.29h1.676c0-1.655 1.073-2.756 2.756-2.756 1.576 0 2.784.966 2.784 2.5 0 1.342-.789 2.336-2.472 4.176l-4.8 5.256V42zm16.524.199c3.21 0 5.056-2.72 5.056-7.472 0-4.716-1.875-7.471-5.056-7.471-3.182 0-5.057 2.755-5.057 7.471 0 4.752 1.846 7.472 5.057 7.472zm0-1.563c-2.117 0-3.353-2.123-3.353-5.909 0-3.778 1.25-5.937 3.353-5.937 2.102 0 3.352 2.159 3.352 5.937 0 3.786-1.236 5.91-3.352 5.91z"/><path fill-rule="evenodd" clip-rule="evenodd" d="M35 70c19.33 0 35-15.67 35-35S54.33 0 35 0 0 15.67 0 35s15.67 35 35 35zm0-2c18.225 0 33-14.775 33-33S53.225 2 35 2 2 16.775 2 35s14.775 33 33 33z"/></symbol><symbol viewBox="0 0 19 11" id="ic-scroll-arrow" xmlns="http://www.w3.org/2000/svg"><path d="M9.504 8.853L1.248.596A.731.731 0 00.214 1.63l8.773 8.774a.731.731 0 001.034 0l8.774-8.774A.731.731 0 0017.76.596L9.504 8.853z"/></symbol><symbol viewBox="0 0 109 109" id="ic-shop" xmlns="http://www.w3.org/2000/svg"><path d="M96.227 39.598V8.728a3.193 3.193 0 00-3.194-3.193H3.193A3.193 3.193 0 000 8.73v50.029h70.68v-9.58c0-5.283 4.297-9.58 9.58-9.58h15.967zM0 81.111a3.193 3.193 0 003.193 3.194H70.68v-19.16H0V81.11zm64.08 15.967h-3.193v-6.387H35.34v6.387h-3.194a3.193 3.193 0 100 6.387H64.08a3.194 3.194 0 000-6.387z"/><path d="M105.807 45.984H80.26a3.193 3.193 0 00-3.194 3.194v51.093a3.194 3.194 0 003.194 3.194h25.547a3.194 3.194 0 003.193-3.194V49.178a3.193 3.193 0 00-3.193-3.194zm-12.774 47.9a3.193 3.193 0 110-6.386 3.193 3.193 0 010 6.387z"/></symbol><symbol viewBox="0 0 168 45" id="ic-store-app" xmlns="http://www.w3.org/2000/svg"><path d="M27.38 20.9c-.043-4.913 4.024-7.303 4.21-7.414-2.303-3.359-5.874-3.818-7.128-3.854-3-.316-5.908 1.794-7.436 1.794-1.557 0-3.91-1.764-6.445-1.712-3.262.05-6.314 1.94-7.988 4.872-3.455 5.98-.878 14.77 2.431 19.604 1.656 2.367 3.59 5.01 6.123 4.918 2.477-.102 3.402-1.58 6.392-1.58 2.962 0 3.83 1.58 6.413 1.52 2.659-.042 4.333-2.378 5.93-4.767 1.914-2.713 2.682-5.386 2.713-5.523-.063-.021-5.164-1.968-5.214-7.857zM22.502 6.452c1.333-1.667 2.244-3.934 1.991-6.234-1.928.085-4.34 1.334-5.729 2.964-1.229 1.436-2.326 3.79-2.043 6.003 2.167.162 4.39-1.093 5.781-2.733zm40.73 32.316H59.77l-1.896-5.96h-6.592l-1.807 5.96h-3.37l6.53-20.288h4.034l6.563 20.288zm-5.93-8.46l-1.715-5.297c-.182-.542-.522-1.816-1.023-3.822h-.061c-.2.863-.522 2.137-.964 3.822l-1.684 5.297h5.447zm22.725.965c0 2.488-.672 4.455-2.017 5.899-1.204 1.285-2.7 1.926-4.485 1.926-1.927 0-3.31-.692-4.154-2.076h-.06v7.706H66.06V28.954c0-1.564-.041-3.169-.12-4.815h2.858l.181 2.318h.061c1.084-1.747 2.73-2.619 4.937-2.619 1.725 0 3.166.682 4.318 2.046 1.156 1.366 1.732 3.162 1.732 5.39zm-3.31.12c0-1.425-.321-2.599-.964-3.522-.703-.964-1.647-1.446-2.83-1.446-.802 0-1.53.269-2.181.798-.653.533-1.08 1.23-1.28 2.093-.1.402-.15.732-.15.99v2.44c0 1.064.326 1.962.978 2.695.653.733 1.5 1.1 2.543 1.1 1.224 0 2.177-.473 2.859-1.415.683-.944 1.024-2.188 1.024-3.734zm20.136-.12c0 2.488-.672 4.455-2.018 5.899-1.203 1.285-2.698 1.926-4.484 1.926-1.927 0-3.31-.692-4.152-2.076h-.061v7.706h-3.25V28.954c0-1.564-.042-3.169-.12-4.815h2.858l.18 2.318h.062c1.082-1.747 2.727-2.619 4.936-2.619 1.724 0 3.165.682 4.32 2.046 1.152 1.366 1.73 3.162 1.73 5.39zm-3.31.12c0-1.425-.323-2.599-.966-3.522-.703-.964-1.643-1.446-2.828-1.446-.803 0-1.53.269-2.183.798-.652.533-1.078 1.23-1.277 2.093-.1.402-.151.732-.151.99v2.44c0 1.064.326 1.962.975 2.695.653.732 1.5 1.1 2.546 1.1 1.224 0 2.177-.473 2.859-1.415.683-.944 1.024-2.188 1.024-3.734zm22.122 1.685c0 1.726-.599 3.13-1.802 4.214-1.321 1.184-3.161 1.776-5.526 1.776-2.183 0-3.933-.42-5.258-1.264l.753-2.709c1.427.863 2.993 1.296 4.699 1.296 1.224 0 2.177-.277 2.861-.83.682-.551 1.022-1.292 1.022-2.216 0-.823-.281-1.517-.843-2.08-.56-.562-1.494-1.085-2.799-1.568-3.553-1.325-5.327-3.265-5.327-5.817 0-1.668.622-3.036 1.867-4.1 1.241-1.066 2.897-1.598 4.967-1.598 1.846 0 3.38.322 4.604.964l-.812 2.65c-1.144-.622-2.436-.933-3.883-.933-1.144 0-2.037.282-2.677.843-.541.501-.813 1.113-.813 1.837 0 .802.31 1.465.932 1.986.541.482 1.524 1.003 2.951 1.566 1.746.703 3.028 1.524 3.853 2.466.821.94 1.231 2.115 1.231 3.517zm10.747-6.5h-3.583v7.103c0 1.806.631 2.709 1.896 2.709.581 0 1.063-.05 1.444-.151l.09 2.468c-.64.239-1.483.36-2.527.36-1.284 0-2.287-.392-3.011-1.174-.721-.784-1.084-2.098-1.084-3.944v-7.374h-2.135v-2.44h2.135v-2.678l3.192-.963v3.642h3.583v2.442zm16.164 4.755c0 2.248-.644 4.095-1.927 5.538-1.346 1.487-3.133 2.228-5.36 2.228-2.147 0-3.856-.712-5.13-2.136-1.275-1.424-1.912-3.221-1.912-5.388 0-2.267.656-4.123 1.971-5.567 1.313-1.445 3.084-2.168 5.312-2.168 2.146 0 3.873.712 5.177 2.137 1.247 1.383 1.869 3.168 1.869 5.356zm-3.372.105c0-1.35-.289-2.506-.872-3.471-.682-1.168-1.656-1.75-2.918-1.75-1.307 0-2.299.584-2.981 1.75-.584.966-.872 2.142-.872 3.532 0 1.35.288 2.506.872 3.47.703 1.167 1.685 1.75 2.952 1.75 1.241 0 2.215-.595 2.918-1.78.599-.984.901-2.153.901-3.5zm13.936-4.441a5.636 5.636 0 00-1.024-.09c-1.144 0-2.028.431-2.65 1.296-.541.762-.812 1.726-.812 2.889v7.676h-3.249l.03-10.022a79.37 79.37 0 00-.122-4.606h2.831l.119 2.8h.09c.343-.963.885-1.737 1.625-2.318.725-.523 1.507-.784 2.35-.784.3 0 .571.022.812.06v3.099zm14.536 3.764c0 .582-.038 1.073-.119 1.474h-9.75c.038 1.446.509 2.55 1.414 3.313.822.681 1.885 1.023 3.19 1.023 1.443 0 2.76-.23 3.945-.692l.509 2.256c-1.384.604-3.018.904-4.904.904-2.269 0-4.049-.668-5.345-2.002-1.293-1.334-1.941-3.125-1.941-5.372 0-2.206.602-4.043 1.808-5.508 1.263-1.564 2.969-2.346 5.115-2.346 2.108 0 3.705.782 4.788 2.346.859 1.243 1.29 2.78 1.29 4.604zm-3.099-.843c.021-.963-.191-1.796-.631-2.499-.563-.904-1.427-1.355-2.59-1.355-1.063 0-1.927.44-2.587 1.325-.542.703-.863 1.546-.962 2.527h6.77v.002zM57.757 13.522h-1.691V11H49.31v2.522h-1.718l-.057-3.945h.824c.409-.394.735-.967.98-1.719.244-.756.401-1.61.471-2.564l.268-4.55h6.467v8.833h1.303l-.091 3.945zm-7.383-3.945h4.396V2.181h-2.994l-.17 2.888c-.126 1.93-.537 3.433-1.232 4.508zm9.048-2.458c0-.747.148-1.419.444-2.015a3.206 3.206 0 011.246-1.38c.536-.325 1.15-.487 1.846-.487 1.029 0 1.862.331 2.5.993.644.663.992 1.54 1.043 2.635l.007.402c0 .75-.145 1.422-.436 2.014-.287.592-.7 1.05-1.24 1.374-.536.324-1.155.486-1.86.486-1.075 0-1.937-.357-2.585-1.07-.644-.72-.965-1.675-.965-2.868V7.12zm1.712.148c0 .784.161 1.399.486 1.845.324.442.774.662 1.352.662.578 0 1.026-.225 1.345-.676.325-.45.487-1.11.487-1.98 0-.77-.167-1.38-.5-1.83-.33-.452-.778-.677-1.346-.677-.559 0-1.003.223-1.331.669-.33.441-.494 1.104-.494 1.987zm10.674 2.507c.428 0 .782-.124 1.064-.373.282-.249.432-.557.451-.923h1.613a2.533 2.533 0 01-.444 1.332 2.921 2.921 0 01-1.127.972 3.35 3.35 0 01-1.535.359c-1.066 0-1.912-.345-2.536-1.036-.625-.69-.937-1.643-.937-2.86V7.07c0-1.16.31-2.087.93-2.782.62-.7 1.465-1.05 2.535-1.05.907 0 1.644.266 2.212.796.573.526.874 1.219.902 2.078h-1.613c-.019-.436-.17-.796-.45-1.078-.278-.281-.633-.422-1.065-.422-.554 0-.981.202-1.282.606-.3.399-.453 1.007-.457 1.824v.275c0 .826.147 1.444.443 1.853.3.403.733.605 1.296.605zm11.14-5.036h-2.472V11h-1.712V4.738H76.32v-1.36h6.628v1.36zm4.617 3.811l1.55-5.17h1.824l-3.029 8.776c-.465 1.282-1.254 1.923-2.367 1.923a3.09 3.09 0 01-.824-.126v-1.325l.324.021c.432 0 .756-.08.972-.24.221-.154.395-.417.522-.788l.246-.655-2.677-7.587h1.846l1.613 5.17zM99.114 11h-1.712V4.759h-2.973V11h-1.712V3.378h6.397V11zm8.998 0H106.4V7.922h-2.965V11h-1.712V3.378h1.712v3.177h2.965V3.378h1.712V11zm2.229-3.881c0-.747.148-1.419.444-2.015.296-.601.711-1.061 1.247-1.38.535-.325 1.15-.487 1.845-.487 1.029 0 1.862.331 2.501.993.643.663.991 1.54 1.042 2.635l.007.402c0 .75-.145 1.422-.436 2.014-.287.592-.7 1.05-1.24 1.374-.535.324-1.155.486-1.86.486-1.075 0-1.937-.357-2.585-1.07-.643-.72-.965-1.675-.965-2.868V7.12zm1.712.148c0 .784.162 1.399.486 1.845.324.442.775.662 1.352.662.578 0 1.026-.225 1.346-.676.324-.45.486-1.11.486-1.98 0-.77-.167-1.38-.5-1.83-.329-.452-.778-.677-1.346-.677-.559 0-1.003.223-1.331.669-.329.441-.493 1.104-.493 1.987zM124.041 11V3.378h3.092c1.043 0 1.836.183 2.381.55.545.361.817.882.817 1.563 0 .353-.11.67-.331.951-.216.277-.538.491-.965.641.498.104.892.313 1.184.627.291.315.436.686.436 1.113 0 .71-.263 1.25-.789 1.62-.521.372-1.272.557-2.254.557h-3.571zm1.711-3.247v1.895h1.874c.878 0 1.317-.315 1.317-.944 0-.634-.446-.951-1.338-.951h-1.853zm0-1.226h1.409c.972 0 1.458-.287 1.458-.86 0-.6-.46-.91-1.38-.93h-1.487v1.79z"/></symbol><symbol viewBox="0 0 187 45" id="ic-store-gp" xmlns="http://www.w3.org/2000/svg"><path d="M94.024 24.8a6.8 6.8 0 106.832 6.8 6.708 6.708 0 00-4.204-6.318 6.704 6.704 0 00-2.628-.482zm0 10.928a4.128 4.128 0 113.84-4.128 3.936 3.936 0 01-3.84 4.128zM79.128 24.8a6.8 6.8 0 106.816 6.8 6.704 6.704 0 00-6.832-6.8h.016zm0 10.928a4.128 4.128 0 113.824-4.128 3.936 3.936 0 01-3.84 4.128h.016zm-17.744-8.832v2.88h6.912a6.032 6.032 0 01-1.6 3.632 7.072 7.072 0 01-5.328 2.112 7.68 7.68 0 010-15.36 7.36 7.36 0 015.232 2.064l2.032-2.032a10.063 10.063 0 00-7.248-2.992 10.576 10.576 0 100 21.136 9.6 9.6 0 007.376-2.96 9.6 9.6 0 002.496-6.752 9.404 9.404 0 00-.16-1.808l-9.712.08zm72.496 2.24a6.397 6.397 0 00-5.824-4.336 6.402 6.402 0 00-6.4 6.8 6.661 6.661 0 004.142 6.308 6.654 6.654 0 002.61.492 6.767 6.767 0 005.664-3.008l-2.32-1.6a3.886 3.886 0 01-3.344 1.888 3.457 3.457 0 01-3.296-2.064l9.104-3.76-.336-.72zm-9.28 2.272a3.732 3.732 0 012.123-3.612 3.725 3.725 0 011.429-.356 2.644 2.644 0 012.528 1.44l-6.08 2.528zM117.208 38h2.992V18h-2.992v20zm-4.896-11.68h-.112a4.798 4.798 0 00-3.584-1.6 6.819 6.819 0 00-6.486 6.808 6.818 6.818 0 006.486 6.808 4.642 4.642 0 003.584-1.6h.096v.976c0 2.608-1.392 4-3.632 4a3.761 3.761 0 01-3.424-2.416l-2.608 1.088a6.484 6.484 0 006.032 4.016c3.504 0 6.4-2.064 6.4-7.088V25.2h-2.752v1.12zm-3.424 9.408a4.144 4.144 0 010-8.256 3.845 3.845 0 012.686 1.298 3.831 3.831 0 01.946 2.83 3.797 3.797 0 01-.941 2.844 3.8 3.8 0 01-2.707 1.284h.016zM147.896 18h-7.152v20h2.992v-7.584h4.176a6.223 6.223 0 100-12.416h-.016zm0 9.6h-4.176v-6.816h4.24a3.434 3.434 0 012.427 5.859 3.434 3.434 0 01-2.427 1.005l-.064-.048zm18.448-2.88a5.598 5.598 0 00-5.328 3.056l2.656 1.104a2.834 2.834 0 012.72-1.472 2.877 2.877 0 013.2 2.576v.208a6.606 6.606 0 00-3.12-.768c-2.864 0-5.76 1.6-5.76 4.496a4.626 4.626 0 004.96 4.4 4.21 4.21 0 003.84-1.92h.096V38h2.88v-7.696c0-3.504-2.656-5.536-6.064-5.536l-.08-.048zm-.368 10.96c-.976 0-2.336-.496-2.336-1.696 0-1.6 1.696-2.128 3.2-2.128a5.31 5.31 0 012.72.672 3.615 3.615 0 01-3.504 3.2l-.08-.048zm17.008-10.48l-3.424 8.672h-.096l-3.552-8.672h-3.2l5.328 12.128-3.04 6.736h3.12l8.192-18.864h-3.328zM156.088 38h2.992V18h-2.992v20zM52.377 12.832h-1.184v-3.2H52.2a4.578 4.578 0 001.216-3.68V1.2h6.4v8.416h1.072v3.2h-1.184V10.8h-7.328v2.032zM54.6 6a6.4 6.4 0 01-.912 3.68h4.8V2.384H54.6V6zm15.856 3.552a4.992 4.992 0 01-7.04 0 5.184 5.184 0 010-7.12 4.96 4.96 0 017.04 0 5.168 5.168 0 010 7.12zm-6.128-.8a3.696 3.696 0 005.216 0 4.096 4.096 0 000-5.504 3.696 3.696 0 00-5.216 0 4.096 4.096 0 000 5.504zm13.76 2.256A4.895 4.895 0 0173.097 6 4.898 4.898 0 0178.089.992a4.432 4.432 0 013.52 1.6l-.864.832a3.2 3.2 0 00-2.672-1.216 3.632 3.632 0 00-2.656 1.056 4.112 4.112 0 000 5.552 3.632 3.632 0 002.656 1.056A3.792 3.792 0 0081 8.448l.864.864a4.672 4.672 0 01-1.6 1.248 5.04 5.04 0 01-2.176.448zm8.8-.208h-1.232V2.384h-2.688V1.2h6.592v1.184h-2.672V10.8zM98.04 1.2l-3.632 8.096a2.416 2.416 0 01-2.208 1.712 2.463 2.463 0 01-.96-.208l.32-1.136c.194.113.415.174.64.176.235.018.47-.038.672-.16.192-.163.341-.372.432-.608l.352-.768-3.2-7.088h1.456L94.28 6.72l2.304-5.52h1.456zm1.392 9.6V1.2h6.944v9.6h-1.232V2.384h-4.48V10.8h-1.232zm9.136 0V1.2h1.232v4.112h4.8V1.2h1.232v9.6H114.6V6.464h-4.8V10.8h-1.232zm17.328-1.248a4.993 4.993 0 01-7.04 0 5.185 5.185 0 010-7.12 4.959 4.959 0 017.04 0 5.17 5.17 0 010 7.12zm-6.128-.8a3.694 3.694 0 005.216 0 4.099 4.099 0 000-5.504 3.698 3.698 0 00-5.216 0 4.095 4.095 0 000 5.504zm12.576 2.048V1.2h3.472a2.817 2.817 0 011.952.736 2.423 2.423 0 01.832 1.872c.007.426-.116.845-.352 1.2a2.224 2.224 0 01-.944.784c.464.154.871.444 1.168.832.307.392.471.878.464 1.376a2.505 2.505 0 01-.864 1.952 2.96 2.96 0 01-2.048.784l-3.68.064zm1.232-5.488h2.24a1.441 1.441 0 001.12-.464 1.43 1.43 0 00.371-1.57A1.442 1.442 0 00137 2.8a1.374 1.374 0 00-1.072-.464h-2.288l-.064 2.976zm0 4.304h2.48a1.472 1.472 0 001.152-.496c.282-.293.442-.682.448-1.088a1.6 1.6 0 00-1.6-1.6h-2.432l-.048 3.184z"/><path fill-rule="evenodd" clip-rule="evenodd" d="M66.937 1.126a4.8 4.8 0 00-3.405 1.417 5.024 5.024 0 000 6.897 4.832 4.832 0 006.81 0 5.008 5.008 0 000-6.897 4.8 4.8 0 00-3.405-1.417zm-1.968.074a5.12 5.12 0 015.601 1.12l.003.002a5.328 5.328 0 010 7.34l-.003.003a5.152 5.152 0 01-7.266 0l-.004-.003a5.344 5.344 0 010-7.34l.003-.003A5.12 5.12 0 0164.97 1.2zm57.408-.074a4.795 4.795 0 00-3.405 1.417 5.021 5.021 0 00-.001 6.897 4.835 4.835 0 006.811 0 5.006 5.006 0 000-6.896 4.8 4.8 0 00-3.405-1.418zm-1.968.074a5.116 5.116 0 015.601 1.12l.003.002a5.328 5.328 0 010 7.34l-.003.003a5.154 5.154 0 01-7.266 0l-.004-.003a5.345 5.345 0 010-7.34l.003-.003a5.118 5.118 0 011.666-1.12zm-40.443.334a4.272 4.272 0 00-1.873-.382h-.008a4.736 4.736 0 00-4.828 4.844v.008a4.736 4.736 0 004.828 4.844l.004.16.003-.16a4.88 4.88 0 002.105-.433 4.511 4.511 0 001.45-1.094l-.636-.636a3.952 3.952 0 01-2.935 1.347 3.792 3.792 0 01-2.772-1.103l-.005-.005a4.272 4.272 0 010-5.768l.005-.006a3.793 3.793 0 012.767-1.102 3.36 3.36 0 012.687 1.141l.63-.607a4.272 4.272 0 00-1.422-1.048zm-1.877 9.634A5.055 5.055 0 0172.937 6 5.055 5.055 0 0178.088.832a4.592 4.592 0 013.644 1.658l.095.114-1.099 1.058-.109-.139a3.04 3.04 0 00-2.538-1.155h-.013a3.471 3.471 0 00-2.536 1.007 3.952 3.952 0 000 5.33 3.472 3.472 0 002.537 1.007h.002a3.632 3.632 0 002.805-1.364l.111-.14 1.094 1.094-.093.112a4.832 4.832 0 01-1.655 1.29l-.002.002a5.2 5.2 0 01-2.242.462zm59.572-9.114a2.655 2.655 0 00-1.841-.694h-3.315v9.277l3.517-.061h.005a2.8 2.8 0 001.937-.742l.004-.003a2.35 2.35 0 00.809-1.827v-.006a2.016 2.016 0 00-.43-1.275l-.001-.002a2.275 2.275 0 00-1.092-.777l-.395-.131.381-.167a2.06 2.06 0 00.876-.727 1.94 1.94 0 00.325-1.108v-.006a2.267 2.267 0 00-.777-1.748l-.003-.003zm.214-.237a2.975 2.975 0 00-2.06-.777h-3.63v9.923l3.837-.067h.003a3.118 3.118 0 002.154-.825A2.673 2.673 0 00139.097 8v.003l-.16-.002.16-.004V8a2.34 2.34 0 00-.498-1.473 2.592 2.592 0 00-.918-.753c.276-.174.515-.403.7-.675l.001-.001a2.26 2.26 0 00.379-1.289v.003l-.16-.003.16-.003v.003a2.574 2.574 0 00-.886-1.991zM53.257 1.04h6.72v8.416h1.072v3.52h-1.504V10.96h-7.008v2.032h-1.504v-3.52h1.098a4.416 4.416 0 001.127-3.501l-.001-.01V1.04zm.32.32v4.583a4.737 4.737 0 01-1.26 3.799l-.047.05h-.917v2.88h.864V10.64h7.648v2.016h.864v-2.88h-1.072V1.36h-6.08zm29.232-.32h6.912v1.504h-2.672v8.416h-1.552V2.544h-2.688V1.04zm.32.32v.864h2.688v8.416h.912V2.224H89.4V1.36h-6.272zm13.35-.32h1.809l-3.73 8.312a2.576 2.576 0 01-2.35 1.816h-.01c-.351-.004-.7-.08-1.022-.221l-.127-.056.414-1.47.178.105c.17.099.364.152.561.154h.01a.976.976 0 00.567-.13c.168-.145.297-.329.376-.535l.004-.01.322-.701-3.272-7.248h1.81l2.26 5.254 2.2-5.27zm.212.32l-2.408 5.77-2.476-5.754h-1.103l3.129 6.929-.38.83a1.67 1.67 0 01-.477.667l-.01.008-.01.007a1.296 1.296 0 01-.762.183 1.456 1.456 0 01-.531-.108l-.23.813c.245.09.504.14.765.143a2.256 2.256 0 002.058-1.598l.003-.01 3.535-7.88H96.69zm2.582-.32h7.264v9.92h-1.552V2.544h-4.16v8.416h-1.552V1.04zm.32.32v9.28h.912V2.224h4.8v8.416h.912V1.36h-6.624zm8.816-.32h1.552v4.112h4.48V1.04h1.552v9.92h-1.552V6.624h-4.48v4.336h-1.552V1.04zm.32.32v9.28h.912V6.304h5.12v4.336h.912V1.36h-.912v4.112h-5.12V1.36h-.912zM64.216 3.135a3.856 3.856 0 015.442 0l.005.005a4.256 4.256 0 010 5.72l-.005.006a3.856 3.856 0 01-5.442 0l.113-.114-.119.107a4.256 4.256 0 010-5.718l.006-.006zm.229 5.506a3.536 3.536 0 004.984 0 3.936 3.936 0 000-5.282 3.536 3.536 0 00-4.984 0 3.936 3.936 0 000 5.282zm55.211-5.506a3.855 3.855 0 015.442 0l.005.005a4.253 4.253 0 010 5.72l-.005.006a3.856 3.856 0 01-5.442 0l.113-.114-.119.107a4.258 4.258 0 010-5.718l.006-.006zm.229 5.507a3.535 3.535 0 004.984 0 3.937 3.937 0 000-5.284 3.535 3.535 0 00-4.984 0 3.933 3.933 0 000 5.284zm16.041-6.466a1.536 1.536 0 011.192.515 1.593 1.593 0 01.445 1.152 1.576 1.576 0 01-.513 1.119 1.603 1.603 0 01-1.237.51h-2.4l.071-3.296h2.442zm.527.42a1.218 1.218 0 00-.52-.1h-2.136l-.057 2.656h2.083a1.283 1.283 0 00.996-.412l.005-.006.005-.005a1.274 1.274 0 00.415-.896 1.277 1.277 0 00-.085-.497 1.28 1.28 0 00-.273-.424l-.005-.006a1.212 1.212 0 00-.428-.31zm-82.012-.372h4.208V9.84h-5.244l.147-.243a6.24 6.24 0 00.889-3.588V2.224zm.32.32v3.451a6.56 6.56 0 01-.796 3.525h4.364V2.544H54.76zm78.706 3.728h2.59a1.758 1.758 0 011.76 1.76v.002a1.763 1.763 0 01-.491 1.195 1.632 1.632 0 01-1.272.547h-2.64l.053-3.504zm.315.32l-.043 2.864h2.323a1.314 1.314 0 001.027-.442l.004-.005c.254-.263.398-.613.404-.978a1.442 1.442 0 00-1.44-1.439h-2.275z"/><path d="M1.704 2.064a3.2 3.2 0 00-.736 2.24v35.392a3.2 3.2 0 00.736 2.24l.112.112L21.64 22.24v-.464L1.816 1.952l-.112.112zM28.2 28.848l-6.56-6.608v-.464l6.56-6.624.144.08 7.856 4.464c2.24 1.264 2.24 3.344 0 4.624l-7.824 4.448-.176.08z"/><path d="M28.392 28.752L21.64 22 1.704 41.936a2.608 2.608 0 003.328.096l23.376-13.28M28.392 15.248L5.016 1.968a2.608 2.608 0 00-3.328.096L21.64 22l6.752-6.752z"/><path opacity=".2" d="M28.2 28.608l-23.184 13.2a2.672 2.672 0 01-3.2 0l-.112.112.112.112a2.656 2.656 0 003.2 0l23.376-13.28-.192-.144z"/><path opacity=".12" d="M1.704 41.712a3.2 3.2 0 01-.736-2.24v.24a3.2 3.2 0 00.736 2.24l.112-.112-.112-.128zM36.2 24.08l-8 4.528.144.144 7.856-4.448A2.8 2.8 0 0037.8 22a2.975 2.975 0 01-1.6 2.08z"/><path opacity=".25" d="M5.016 2.191L36.2 19.92A2.977 2.977 0 0137.8 22a2.8 2.8 0 00-1.6-2.304L5.016 1.967C2.776.703.952 1.76.952 4.32v.24C1 1.983 2.792.927 5.016 2.191z"/><defs><linearGradient id="opaint0_linear" x1="19.88" y1="3.936" x2="-6.968" y2="30.784" gradientUnits="userSpaceOnUse"><stop stop-color="#00A0FF"/><stop offset=".01" stop-color="#00A1FF"/><stop offset=".26" stop-color="#00BEFF"/><stop offset=".51" stop-color="#00D2FF"/><stop offset=".76" stop-color="#00DFFF"/><stop offset="1" stop-color="#00E3FF"/></linearGradient><linearGradient id="opaint1_linear" x1="39.128" y1="22" x2=".424" y2="22" gradientUnits="userSpaceOnUse"><stop stop-color="#FFE000"/><stop offset=".41" stop-color="#FFBD00"/><stop offset=".78" stop-color="orange"/><stop offset="1" stop-color="#FF9C00"/></linearGradient><linearGradient id="opaint2_linear" x1="24.728" y1="25.68" x2="-11.688" y2="62.08" gradientUnits="userSpaceOnUse"><stop stop-color="#FF3A44"/><stop offset="1" stop-color="#C31162"/></linearGradient><linearGradient id="opaint3_linear" x1="-3.32" y1="-9.712" x2="12.936" y2="6.544" gradientUnits="userSpaceOnUse"><stop stop-color="#32A071"/><stop offset=".07" stop-color="#2DA771"/><stop offset=".48" stop-color="#15CF74"/><stop offset=".8" stop-color="#06E775"/><stop offset="1" stop-color="#00F076"/></linearGradient></defs></symbol><symbol viewBox="0 0 19 17" id="ic-twitter" xmlns="http://www.w3.org/2000/svg"><path d="M5.08 16A11.07 11.07 0 0016.52 5 8.092 8.092 0 0018 2.16a.44.44 0 00-.62-.51 1.88 1.88 0 01-2.16-.38 3.89 3.89 0 00-5.58-.17A4.13 4.13 0 008.49 5C5.14 5.2 2.84 3.61 1 1.43a.43.43 0 00-.75.24 9.68 9.68 0 004.6 10.05A6.73 6.73 0 01.38 14a.45.45 0 00-.14.84A11 11 0 005.08 16z"/></symbol><symbol viewBox="0 0 71 70" id="ic-year" xmlns="http://www.w3.org/2000/svg"><path d="M32.193 42h1.846l6.477-12.898v-1.648h-9.318v1.563h7.5v.114L32.193 42z"/><path fill-rule="evenodd" clip-rule="evenodd" d="M35.945 70c19.33 0 35-15.67 35-35s-15.67-35-35-35-35 15.67-35 35 15.67 35 35 35zm0-2c18.226 0 33-14.775 33-33s-14.774-33-33-33c-18.225 0-33 14.775-33 33s14.775 33 33 33z"/></symbol></svg>