<svg width="70" height="107" fill="none" xmlns="http://www.w3.org/2000/svg"><path d="M17.437 42h1.846l6.478-12.898v-1.648h-9.318v1.563h7.5v.114L17.437 42zm15.007.199c2.905 0 4.929-1.698 4.943-4.063-.014-1.84-1.243-3.402-2.812-3.693v-.085c1.363-.355 2.258-1.69 2.272-3.239-.014-2.216-1.875-3.863-4.403-3.863-2.557 0-4.418 1.647-4.403 3.863-.015 1.549.88 2.884 2.272 3.239v.085c-1.598.291-2.826 1.854-2.812 3.693-.014 2.365 2.01 4.063 4.943 4.063zm0-1.563c-1.996 0-3.224-1.022-3.21-2.585-.014-1.64 1.342-2.812 3.21-2.812 1.84 0 3.196 1.172 3.21 2.812-.014 1.563-1.243 2.585-3.21 2.585zm0-6.903c-1.59 0-2.713-.994-2.699-2.5-.014-1.477 1.066-2.443 2.7-2.443 1.604 0 2.684.966 2.698 2.443-.014 1.506-1.136 2.5-2.699 2.5zm14.75 5.54c0 1.59.994 2.926 2.84 2.926 1.819 0 2.813-1.335 2.813-2.926v-.767c0-1.591-.966-2.926-2.812-2.926-1.818 0-2.841 1.335-2.841 2.926v.767zm-7.245-8.324c0 1.59.995 2.926 2.841 2.926 1.819 0 2.813-1.335 2.813-2.926v-.767c0-1.591-.966-2.926-2.813-2.926-1.818 0-2.84 1.335-2.84 2.926v.767zM40.49 42h1.62l10-14.546h-1.62L40.49 42zm8.154-3.494c0-.881.397-1.705 1.392-1.705 1.022 0 1.363.824 1.363 1.705v.767c0 .88-.369 1.704-1.363 1.704-1.023 0-1.392-.824-1.392-1.704v-.767zm-7.245-8.324c0-.88.398-1.705 1.392-1.705 1.023 0 1.364.824 1.364 1.705v.767c0 .88-.37 1.704-1.364 1.704-1.022 0-1.392-.823-1.392-1.704v-.767zM9.057 89.454H6.983l4.688 7.273L6.983 104h2.074l3.75-5.938h.114L16.67 104h2.074l-4.574-7.273 4.574-7.273H16.67l-3.75 6.052h-.114l-3.75-6.052zm15.288 14.773c2.415 0 4.006-1.477 4.29-3.409h-1.677c-.312 1.193-1.306 1.904-2.613 1.904-1.989 0-3.267-1.648-3.267-4.176 0-2.472 1.307-4.092 3.267-4.092 1.477 0 2.358.91 2.614 1.904h1.676c-.284-2.046-2.017-3.41-4.319-3.41-2.954 0-4.914 2.33-4.914 5.654 0 3.267 1.875 5.625 4.943 5.625zm10.842 0c2.954 0 4.943-2.244 4.943-5.625 0-3.409-1.989-5.653-4.943-5.653-2.955 0-4.944 2.244-4.944 5.653 0 3.381 1.99 5.625 4.944 5.625zm0-1.505c-2.245 0-3.267-1.932-3.267-4.12 0-2.187 1.022-4.148 3.267-4.148 2.244 0 3.267 1.96 3.267 4.148 0 2.188-1.023 4.12-3.267 4.12zm11.29 1.505c2.103 0 2.813-1.307 3.182-1.903h.2V104h1.619V89.454H49.8v5.37h-.142c-.369-.568-1.022-1.875-3.153-1.875-2.756 0-4.66 2.187-4.66 5.625 0 3.466 1.904 5.653 4.632 5.653zm.228-1.505c-2.102 0-3.182-1.847-3.182-4.176 0-2.302 1.051-4.092 3.182-4.092 2.045 0 3.125 1.648 3.125 4.092 0 2.471-1.108 4.176-3.125 4.176zm12.319 1.505c2.216 0 3.835-1.108 4.346-2.755l-1.619-.455c-.426 1.136-1.413 1.705-2.727 1.705-1.968 0-3.324-1.272-3.402-3.608h7.919v-.71c0-4.063-2.415-5.455-4.688-5.455-2.954 0-4.914 2.33-4.914 5.682 0 3.352 1.931 5.596 5.085 5.596zm-3.402-6.562c.114-1.698 1.314-3.21 3.231-3.21 1.819 0 2.983 1.363 2.983 3.21h-6.214z" fill="#34879D"/><path fill-rule="evenodd" clip-rule="evenodd" d="M66.402 50.458a35 35 0 002.805-22.865l-1.948.422A33.07 33.07 0 0168 35c0 18.225-14.775 33-33 33S2 53.225 2 35 16.775 2 35 2c5.026 0 9.79 1.123 14.053 3.133L49.9 3.33a35 35 0 1016.5 47.128z" fill="#34879D"/></svg>