<svg width="70" height="107" fill="none" xmlns="http://www.w3.org/2000/svg"><path d="M21.34 42.199c2.905 0 4.93-1.698 4.944-4.063-.014-1.84-1.243-3.402-2.813-3.693v-.085c1.364-.355 2.259-1.69 2.273-3.239-.014-2.216-1.875-3.863-4.403-3.863-2.557 0-4.418 1.647-4.404 3.863-.014 1.549.88 2.884 2.273 3.239v.085c-1.598.291-2.827 1.854-2.813 3.693-.014 2.365 2.01 4.063 4.944 4.063zm0-1.563c-1.995 0-3.224-1.022-3.21-2.585-.014-1.64 1.343-2.812 3.21-2.812 1.84 0 3.197 1.172 3.21 2.812-.013 1.563-1.242 2.585-3.21 2.585zm0-6.903c-1.59 0-2.712-.994-2.698-2.5-.014-1.477 1.065-2.443 2.699-2.443 1.605 0 2.684.966 2.698 2.443-.014 1.506-1.136 2.5-2.698 2.5zm12.25 8.466c2.82 0 4.915-1.769 4.915-4.148 0-1.846-1.094-3.189-2.926-3.494v-.114c1.47-.447 2.386-1.655 2.386-3.295 0-2.06-1.626-3.892-4.318-3.892-2.514 0-4.602 1.548-4.687 3.835h1.704c.064-1.449 1.442-2.301 2.955-2.301 1.605 0 2.642.973 2.642 2.443 0 1.534-1.2 2.528-2.926 2.528H32.17v1.563h1.165c2.209 0 3.437 1.122 3.437 2.727 0 1.541-1.342 2.585-3.21 2.585-1.683 0-3.018-.866-3.125-2.272h-1.79c.107 2.287 2.124 3.835 4.943 3.835zm14.905-2.926c0 1.59.994 2.926 2.84 2.926 1.819 0 2.813-1.335 2.813-2.926v-.767c0-1.591-.966-2.926-2.813-2.926-1.818 0-2.84 1.335-2.84 2.926v.767zm-7.245-8.324c0 1.59.995 2.926 2.841 2.926 1.818 0 2.813-1.335 2.813-2.926v-.767c0-1.591-.966-2.926-2.813-2.926-1.818 0-2.84 1.335-2.84 2.926v.767zM41.79 42h1.62l10-14.546h-1.62L41.79 42zm8.154-3.494c0-.881.397-1.705 1.392-1.705 1.022 0 1.363.824 1.363 1.705v.767c0 .88-.37 1.704-1.363 1.704-1.023 0-1.392-.824-1.392-1.704v-.767zm-7.245-8.324c0-.88.398-1.705 1.392-1.705 1.023 0 1.364.824 1.364 1.705v.767c0 .88-.37 1.704-1.364 1.704-1.023 0-1.392-.823-1.392-1.704v-.767zM21.42 89.454v10.398c0 1.811-.866 2.784-2.386 2.784-1.385 0-2.386-.809-2.386-2.045h-1.733c0 2.237 1.733 3.608 4.12 3.608 2.527 0 4.147-1.556 4.147-4.347V89.454H21.42zm7.944 14.802c1.904 0 2.898-1.023 3.24-1.733h.084V104h1.676v-7.188c0-3.465-2.642-3.863-4.034-3.863-1.647 0-3.522.568-4.375 2.557l1.591.568c.37-.796 1.243-1.648 2.841-1.648 1.541 0 2.301.817 2.301 2.216v.057c0 .81-.824.739-2.812.994-2.024.263-4.233.71-4.233 3.21 0 2.131 1.648 3.353 3.721 3.353zm.256-1.506c-1.335 0-2.301-.597-2.301-1.761 0-1.279 1.165-1.677 2.472-1.847.71-.085 2.613-.284 2.897-.625v1.534c0 1.364-1.08 2.699-3.068 2.699zm16.003-9.66h-1.818l-3.011 8.694h-.114l-3.011-8.693H35.85L39.885 104h1.704l4.034-10.91zm4.76 11.166c1.904 0 2.899-1.023 3.24-1.733h.085V104h1.676v-7.188c0-3.465-2.642-3.863-4.034-3.863-1.648 0-3.523.568-4.375 2.557l1.59.568c.37-.796 1.244-1.648 2.842-1.648 1.54 0 2.3.817 2.3 2.216v.057c0 .81-.823.739-2.812.994-2.024.263-4.233.71-4.233 3.21 0 2.131 1.648 3.353 3.722 3.353zm.256-1.506c-1.335 0-2.3-.597-2.3-1.761 0-1.279 1.164-1.677 2.471-1.847.71-.085 2.614-.284 2.898-.625v1.534c0 1.364-1.08 2.699-3.069 2.699z" fill="#38988C"/><path fill-rule="evenodd" clip-rule="evenodd" d="M40.377 69.585a35 35 0 0020.72-11.262l-1.491-1.332C53.563 63.747 44.778 68 35 68 16.775 68 2 53.225 2 35S16.775 2 35 2c17.605 0 31.99 13.786 32.95 31.15l1.995-.111a35 35 0 10-29.568 36.546z" fill="#38988C"/></svg>