<svg width="70" height="107" fill="none" xmlns="http://www.w3.org/2000/svg"><path d="M21.351 27.256c-2.954-.036-4.858 2.187-4.858 4.858 0 2.812 2.074 4.83 4.574 4.83 1.506 0 2.784-.74 3.58-1.933h.113c0 3.58-1.392 5.625-3.636 5.625-1.534 0-2.472-.966-2.784-2.3h-1.733c.34 2.3 2.074 3.863 4.517 3.863 3.267 0 5.284-2.898 5.284-8.068 0-5.341-2.67-6.847-5.057-6.875zm0 1.562c1.819 0 3.154 1.563 3.154 3.267 0 1.733-1.42 3.296-3.21 3.296s-3.097-1.45-3.097-3.267c0-1.818 1.363-3.296 3.153-3.296zm12.264 13.38c3.21 0 5.057-2.72 5.057-7.47 0-4.717-1.875-7.472-5.057-7.472-3.182 0-5.057 2.755-5.057 7.471 0 4.752 1.847 7.472 5.057 7.472zm0-1.562c-2.116 0-3.352-2.123-3.352-5.909 0-3.778 1.25-5.937 3.352-5.937s3.352 2.159 3.352 5.937c0 3.786-1.235 5.91-3.352 5.91zm14.84-1.363c0 1.59.995 2.926 2.841 2.926 1.819 0 2.813-1.335 2.813-2.926v-.767c0-1.591-.966-2.926-2.813-2.926-1.818 0-2.84 1.335-2.84 2.926v.767zm-7.244-8.324c0 1.59.995 2.926 2.841 2.926 1.818 0 2.813-1.335 2.813-2.926v-.767c0-1.591-.966-2.926-2.813-2.926-1.818 0-2.84 1.335-2.84 2.926v.767zM41.751 42h1.62l10-14.546h-1.62L41.751 42zm8.153-3.494c0-.881.398-1.705 1.392-1.705 1.023 0 1.364.824 1.364 1.705v.767c0 .88-.37 1.704-1.364 1.704-1.022 0-1.392-.824-1.392-1.704v-.767zm-7.244-8.324c0-.88.398-1.705 1.392-1.705 1.023 0 1.364.824 1.364 1.705v.767c0 .88-.37 1.704-1.364 1.704-1.023 0-1.392-.823-1.392-1.704v-.767zM8.917 104h1.761v-6.506h7.756V104h1.761V89.454h-1.761v6.478h-7.756v-6.478H8.917V104zm13.679-12.983h4.574V104h1.761V91.017h4.574v-1.563h-10.91v1.563zm13.297-1.563V104h1.648V92.949h.142L42.228 104h1.591l4.546-11.051h.142V104h1.648V89.454h-2.103l-4.943 12.074h-.17l-4.944-12.074h-2.102zM53.356 104h8.523v-1.562h-6.762V89.454h-1.761V104z" fill="#4672B8"/><path fill-rule="evenodd" clip-rule="evenodd" d="M68.257 45.908a35 35 0 00-1.199-24.954l-1.824.8A32.888 32.888 0 0168 35c0 18.225-14.775 33-33 33S2 53.225 2 35 16.775 2 35 2a32.872 32.872 0 0121.605 8.055l1.31-1.511a35 35 0 1010.342 37.364z" fill="#4672B8"/></svg>